#usda 1.0
(
    defaultPrim = "Asset"
    metersPerUnit = 1
    upAxis = "Z"
)

def Xform "Asset"
{
    def "Plug"
    {
        def Mesh "housing" (
            prepend apiSchemas = ["MaterialBindingAPI"]
            customData = {
                bool newton_collision = 1
            }
        )
        {
            int[] faceVertexCounts = [3, 3, 3, 3, 3, 3, 3, 3, 3, 3, 3, 3]
            int[] faceVertexIndices = [1, 3, 0, 4, 1, 0, 0, 3, 2, 2, 4, 0, 1, 7, 3, 5, 1, 4, 5, 7, 1, 3, 7, 2, 6, 4, 2, 2, 7, 6, 6, 5, 4, 7, 5, 6]
            rel material:binding = </Looks/M_b7bfc4>
            point3f[] points = [(-0.021, -0.0135, -0.004), (-0.021, -0.0135, 0.004), (-0.021, 0.0135, -0.004), (-0.021, 0.0135, 0.004), (0.021, -0.0135, -0.004), (0.021, -0.0135, 0.004), (0.021, 0.0135, -0.004), (0.021, 0.0135, 0.004)]
            color3f[] primvars:displayColor = [(0.72, 0.75, 0.77)]
            uniform token subdivisionScheme = "none"
        }

        def Mesh "top_ridge" (
            prepend apiSchemas = ["MaterialBindingAPI"]
            customData = {
                bool newton_collision = 0
            }
        )
        {
            int[] faceVertexCounts = [3, 3, 3, 3, 3, 3, 3, 3, 3, 3, 3, 3]
            int[] faceVertexIndices = [1, 3, 0, 4, 1, 0, 0, 3, 2, 2, 4, 0, 1, 7, 3, 5, 1, 4, 5, 7, 1, 3, 7, 2, 6, 4, 2, 2, 7, 6, 6, 5, 4, 7, 5, 6]
            rel material:binding = </Looks/M_b7bfc4>
            point3f[] points = [(-0.0215, -0.013, 0.004), (-0.0215, -0.013, 0.006), (-0.0215, -0.011, 0.004), (-0.0215, -0.011, 0.006), (0.0215, -0.013, 0.004), (0.0215, -0.013, 0.006), (0.0215, -0.011, 0.004), (0.0215, -0.011, 0.006)]
            color3f[] primvars:displayColor = [(0.72, 0.75, 0.77)]
            uniform token subdivisionScheme = "none"
        }

        def Mesh "rear_ridge" (
            prepend apiSchemas = ["MaterialBindingAPI"]
            customData = {
                bool newton_collision = 0
            }
        )
        {
            int[] faceVertexCounts = [3, 3, 3, 3, 3, 3, 3, 3, 3, 3, 3, 3]
            int[] faceVertexIndices = [1, 3, 0, 4, 1, 0, 0, 3, 2, 2, 4, 0, 1, 7, 3, 5, 1, 4, 5, 7, 1, 3, 7, 2, 6, 4, 2, 2, 7, 6, 6, 5, 4, 7, 5, 6]
            rel material:binding = </Looks/M_b7bfc4>
            point3f[] points = [(-0.0215, 0.011, 0.004), (-0.0215, 0.011, 0.006), (-0.0215, 0.013, 0.004), (-0.0215, 0.013, 0.006), (0.0215, 0.011, 0.004), (0.0215, 0.011, 0.006), (0.0215, 0.013, 0.004), (0.0215, 0.013, 0.006)]
            color3f[] primvars:displayColor = [(0.72, 0.75, 0.77)]
            uniform token subdivisionScheme = "none"
        }

        def Mesh "blue_wire_support" (
            prepend apiSchemas = ["MaterialBindingAPI"]
            customData = {
                bool newton_collision = 0
            }
        )
        {
            int[] faceVertexCounts = [3, 3, 3, 3, 3, 3, 3, 3, 3, 3, 3, 3]
            int[] faceVertexIndices = [1, 3, 0, 4, 1, 0, 0, 3, 2, 2, 4, 0, 1, 7, 3, 5, 1, 4, 5, 7, 1, 3, 7, 2, 6, 4, 2, 2, 7, 6, 6, 5, 4, 7, 5, 6]
            rel material:binding = </Looks/M_0b309e>
            point3f[] points = [(-0.01, 0.006, 0.004), (-0.01, 0.006, 0.011), (-0.01, 0.012, 0.004), (-0.01, 0.012, 0.011), (0.01, 0.006, 0.004), (0.01, 0.006, 0.011), (0.01, 0.012, 0.004), (0.01, 0.012, 0.011)]
            color3f[] primvars:displayColor = [(0.045, 0.19, 0.62)]
            uniform token subdivisionScheme = "none"
        }

        def Mesh "handling_rib_stem" (
            prepend apiSchemas = ["MaterialBindingAPI"]
            customData = {
                bool newton_collision = 1
            }
        )
        {
            int[] faceVertexCounts = [3, 3, 3, 3, 3, 3, 3, 3, 3, 3, 3, 3]
            int[] faceVertexIndices = [1, 3, 0, 4, 1, 0, 0, 3, 2, 2, 4, 0, 1, 7, 3, 5, 1, 4, 5, 7, 1, 3, 7, 2, 6, 4, 2, 2, 7, 6, 6, 5, 4, 7, 5, 6]
            rel material:binding = </Looks/M_b7bfc4>
            point3f[] points = [(-0.01, -0.0095, 0.004), (-0.01, -0.0095, 0.015), (-0.01, -0.0005, 0.004), (-0.01, -0.0005, 0.015), (0.01, -0.0095, 0.004), (0.01, -0.0095, 0.015), (0.01, -0.0005, 0.004), (0.01, -0.0005, 0.015)]
            color3f[] primvars:displayColor = [(0.72, 0.75, 0.77)]
            uniform token subdivisionScheme = "none"
        }

        def Mesh "handling_rib_head" (
            prepend apiSchemas = ["MaterialBindingAPI"]
            customData = {
                bool newton_collision = 1
            }
        )
        {
            int[] faceVertexCounts = [3, 3, 3, 3, 3, 3, 3, 3, 3, 3, 3, 3]
            int[] faceVertexIndices = [1, 3, 0, 4, 1, 0, 0, 3, 2, 2, 4, 0, 1, 7, 3, 5, 1, 4, 5, 7, 1, 3, 7, 2, 6, 4, 2, 2, 7, 6, 6, 5, 4, 7, 5, 6]
            rel material:binding = </Looks/M_b7bfc4>
            point3f[] points = [(-0.014, -0.011, 0.015), (-0.014, -0.011, 0.024), (-0.014, 0.001, 0.015), (-0.014, 0.001, 0.024), (0.014, -0.011, 0.015), (0.014, -0.011, 0.024), (0.014, 0.001, 0.015), (0.014, 0.001, 0.024)]
            color3f[] primvars:displayColor = [(0.72, 0.75, 0.77)]
            uniform token subdivisionScheme = "none"
        }

        def Mesh "end_key_m1" (
            prepend apiSchemas = ["MaterialBindingAPI"]
            customData = {
                bool newton_collision = 1
            }
        )
        {
            int[] faceVertexCounts = [3, 3, 3, 3, 3, 3, 3, 3, 3, 3, 3, 3]
            int[] faceVertexIndices = [1, 3, 0, 4, 1, 0, 0, 3, 2, 2, 4, 0, 1, 7, 3, 5, 1, 4, 5, 7, 1, 3, 7, 2, 6, 4, 2, 2, 7, 6, 6, 5, 4, 7, 5, 6]
            rel material:binding = </Looks/M_b7bfc4>
            point3f[] points = [(-0.022, -0.0075, -0.002), (-0.022, -0.0075, 0.002), (-0.022, 0.0075, -0.002), (-0.022, 0.0075, 0.002), (-0.021, -0.0075, -0.002), (-0.021, -0.0075, 0.002), (-0.021, 0.0075, -0.002), (-0.021, 0.0075, 0.002)]
            color3f[] primvars:displayColor = [(0.72, 0.75, 0.77)]
            uniform token subdivisionScheme = "none"
        }

        def Mesh "grip_ear_m1" (
            prepend apiSchemas = ["MaterialBindingAPI"]
            customData = {
                bool newton_collision = 0
            }
        )
        {
            int[] faceVertexCounts = [3, 3, 3, 3, 3, 3, 3, 3, 3, 3, 3, 3]
            int[] faceVertexIndices = [1, 3, 0, 4, 1, 0, 0, 3, 2, 2, 4, 0, 1, 7, 3, 5, 1, 4, 5, 7, 1, 3, 7, 2, 6, 4, 2, 2, 7, 6, 6, 5, 4, 7, 5, 6]
            rel material:binding = </Looks/M_b7bfc4>
            point3f[] points = [(-0.0235, -0.003, 0.004), (-0.0235, -0.003, 0.006), (-0.0235, 0.003, 0.004), (-0.0235, 0.003, 0.006), (-0.0205, -0.003, 0.004), (-0.0205, -0.003, 0.006), (-0.0205, 0.003, 0.004), (-0.0205, 0.003, 0.006)]
            color3f[] primvars:displayColor = [(0.72, 0.75, 0.77)]
            uniform token subdivisionScheme = "none"
        }

        def Mesh "end_key_1" (
            prepend apiSchemas = ["MaterialBindingAPI"]
            customData = {
                bool newton_collision = 1
            }
        )
        {
            int[] faceVertexCounts = [3, 3, 3, 3, 3, 3, 3, 3, 3, 3, 3, 3]
            int[] faceVertexIndices = [1, 3, 0, 4, 1, 0, 0, 3, 2, 2, 4, 0, 1, 7, 3, 5, 1, 4, 5, 7, 1, 3, 7, 2, 6, 4, 2, 2, 7, 6, 6, 5, 4, 7, 5, 6]
            rel material:binding = </Looks/M_b7bfc4>
            point3f[] points = [(0.021, -0.0075, -0.002), (0.021, -0.0075, 0.002), (0.021, 0.0075, -0.002), (0.021, 0.0075, 0.002), (0.022, -0.0075, -0.002), (0.022, -0.0075, 0.002), (0.022, 0.0075, -0.002), (0.022, 0.0075, 0.002)]
            color3f[] primvars:displayColor = [(0.72, 0.75, 0.77)]
            uniform token subdivisionScheme = "none"
        }

        def Mesh "grip_ear_1" (
            prepend apiSchemas = ["MaterialBindingAPI"]
            customData = {
                bool newton_collision = 0
            }
        )
        {
            int[] faceVertexCounts = [3, 3, 3, 3, 3, 3, 3, 3, 3, 3, 3, 3]
            int[] faceVertexIndices = [1, 3, 0, 4, 1, 0, 0, 3, 2, 2, 4, 0, 1, 7, 3, 5, 1, 4, 5, 7, 1, 3, 7, 2, 6, 4, 2, 2, 7, 6, 6, 5, 4, 7, 5, 6]
            rel material:binding = </Looks/M_b7bfc4>
            point3f[] points = [(0.0205, -0.003, 0.004), (0.0205, -0.003, 0.006), (0.0205, 0.003, 0.004), (0.0205, 0.003, 0.006), (0.0235, -0.003, 0.004), (0.0235, -0.003, 0.006), (0.0235, 0.003, 0.004), (0.0235, 0.003, 0.006)]
            color3f[] primvars:displayColor = [(0.72, 0.75, 0.77)]
            uniform token subdivisionScheme = "none"
        }

        def Mesh "contact_recess_00" (
            prepend apiSchemas = ["MaterialBindingAPI"]
            customData = {
                bool newton_collision = 0
            }
        )
        {
            int[] faceVertexCounts = [3, 3, 3, 3, 3, 3, 3, 3, 3, 3, 3, 3]
            int[] faceVertexIndices = [1, 3, 0, 4, 1, 0, 0, 3, 2, 2, 4, 0, 1, 7, 3, 5, 1, 4, 5, 7, 1, 3, 7, 2, 6, 4, 2, 2, 7, 6, 6, 5, 4, 7, 5, 6]
            rel material:binding = </Looks/M_18191c>
            point3f[] points = [(-0.0177, -0.005, 0.00405), (-0.0177, -0.005, 0.00425), (-0.0177, -0.001, 0.00405), (-0.0177, -0.001, 0.00425), (-0.0165, -0.005, 0.00405), (-0.0165, -0.005, 0.00425), (-0.0165, -0.001, 0.00405), (-0.0165, -0.001, 0.00425)]
            color3f[] primvars:displayColor = [(0.095, 0.1, 0.11)]
            uniform token subdivisionScheme = "none"
        }

        def Mesh "contact_tip_00" (
            prepend apiSchemas = ["MaterialBindingAPI"]
            customData = {
                bool newton_collision = 0
            }
        )
        {
            int[] faceVertexCounts = [3, 3, 3, 3, 3, 3, 3, 3, 3, 3, 3, 3]
            int[] faceVertexIndices = [1, 3, 0, 4, 1, 0, 0, 3, 2, 2, 4, 0, 1, 7, 3, 5, 1, 4, 5, 7, 1, 3, 7, 2, 6, 4, 2, 2, 7, 6, 6, 5, 4, 7, 5, 6]
            rel material:binding = </Looks/M_99844c>
            point3f[] points = [(-0.017375, -0.004, 0.00419), (-0.017375, -0.004, 0.00441), (-0.017375, -0.002, 0.00419), (-0.017375, -0.002, 0.00441), (-0.016825, -0.004, 0.00419), (-0.016825, -0.004, 0.00441), (-0.016825, -0.002, 0.00419), (-0.016825, -0.002, 0.00441)]
            color3f[] primvars:displayColor = [(0.6, 0.52, 0.3)]
            uniform token subdivisionScheme = "none"
        }

        def Mesh "contact_recess_01" (
            prepend apiSchemas = ["MaterialBindingAPI"]
            customData = {
                bool newton_collision = 0
            }
        )
        {
            int[] faceVertexCounts = [3, 3, 3, 3, 3, 3, 3, 3, 3, 3, 3, 3]
            int[] faceVertexIndices = [1, 3, 0, 4, 1, 0, 0, 3, 2, 2, 4, 0, 1, 7, 3, 5, 1, 4, 5, 7, 1, 3, 7, 2, 6, 4, 2, 2, 7, 6, 6, 5, 4, 7, 5, 6]
            rel material:binding = </Looks/M_18191c>
            point3f[] points = [(-0.0159, -0.005, 0.00405), (-0.0159, -0.005, 0.00425), (-0.0159, -0.001, 0.00405), (-0.0159, -0.001, 0.00425), (-0.0147, -0.005, 0.00405), (-0.0147, -0.005, 0.00425), (-0.0147, -0.001, 0.00405), (-0.0147, -0.001, 0.00425)]
            color3f[] primvars:displayColor = [(0.095, 0.1, 0.11)]
            uniform token subdivisionScheme = "none"
        }

        def Mesh "contact_tip_01" (
            prepend apiSchemas = ["MaterialBindingAPI"]
            customData = {
                bool newton_collision = 0
            }
        )
        {
            int[] faceVertexCounts = [3, 3, 3, 3, 3, 3, 3, 3, 3, 3, 3, 3]
            int[] faceVertexIndices = [1, 3, 0, 4, 1, 0, 0, 3, 2, 2, 4, 0, 1, 7, 3, 5, 1, 4, 5, 7, 1, 3, 7, 2, 6, 4, 2, 2, 7, 6, 6, 5, 4, 7, 5, 6]
            rel material:binding = </Looks/M_99844c>
            point3f[] points = [(-0.015575, -0.004, 0.00419), (-0.015575, -0.004, 0.00441), (-0.015575, -0.002, 0.00419), (-0.015575, -0.002, 0.00441), (-0.015025, -0.004, 0.00419), (-0.015025, -0.004, 0.00441), (-0.015025, -0.002, 0.00419), (-0.015025, -0.002, 0.00441)]
            color3f[] primvars:displayColor = [(0.6, 0.52, 0.3)]
            uniform token subdivisionScheme = "none"
        }

        def Mesh "contact_recess_02" (
            prepend apiSchemas = ["MaterialBindingAPI"]
            customData = {
                bool newton_collision = 0
            }
        )
        {
            int[] faceVertexCounts = [3, 3, 3, 3, 3, 3, 3, 3, 3, 3, 3, 3]
            int[] faceVertexIndices = [1, 3, 0, 4, 1, 0, 0, 3, 2, 2, 4, 0, 1, 7, 3, 5, 1, 4, 5, 7, 1, 3, 7, 2, 6, 4, 2, 2, 7, 6, 6, 5, 4, 7, 5, 6]
            rel material:binding = </Looks/M_18191c>
            point3f[] points = [(-0.0141, -0.005, 0.00405), (-0.0141, -0.005, 0.00425), (-0.0141, -0.001, 0.00405), (-0.0141, -0.001, 0.00425), (-0.0129, -0.005, 0.00405), (-0.0129, -0.005, 0.00425), (-0.0129, -0.001, 0.00405), (-0.0129, -0.001, 0.00425)]
            color3f[] primvars:displayColor = [(0.095, 0.1, 0.11)]
            uniform token subdivisionScheme = "none"
        }

        def Mesh "contact_tip_02" (
            prepend apiSchemas = ["MaterialBindingAPI"]
            customData = {
                bool newton_collision = 0
            }
        )
        {
            int[] faceVertexCounts = [3, 3, 3, 3, 3, 3, 3, 3, 3, 3, 3, 3]
            int[] faceVertexIndices = [1, 3, 0, 4, 1, 0, 0, 3, 2, 2, 4, 0, 1, 7, 3, 5, 1, 4, 5, 7, 1, 3, 7, 2, 6, 4, 2, 2, 7, 6, 6, 5, 4, 7, 5, 6]
            rel material:binding = </Looks/M_99844c>
            point3f[] points = [(-0.013775, -0.004, 0.00419), (-0.013775, -0.004, 0.00441), (-0.013775, -0.002, 0.00419), (-0.013775, -0.002, 0.00441), (-0.013225, -0.004, 0.00419), (-0.013225, -0.004, 0.00441), (-0.013225, -0.002, 0.00419), (-0.013225, -0.002, 0.00441)]
            color3f[] primvars:displayColor = [(0.6, 0.52, 0.3)]
            uniform token subdivisionScheme = "none"
        }

        def Mesh "contact_recess_03" (
            prepend apiSchemas = ["MaterialBindingAPI"]
            customData = {
                bool newton_collision = 0
            }
        )
        {
            int[] faceVertexCounts = [3, 3, 3, 3, 3, 3, 3, 3, 3, 3, 3, 3]
            int[] faceVertexIndices = [1, 3, 0, 4, 1, 0, 0, 3, 2, 2, 4, 0, 1, 7, 3, 5, 1, 4, 5, 7, 1, 3, 7, 2, 6, 4, 2, 2, 7, 6, 6, 5, 4, 7, 5, 6]
            rel material:binding = </Looks/M_18191c>
            point3f[] points = [(-0.0123, -0.005, 0.00405), (-0.0123, -0.005, 0.00425), (-0.0123, -0.001, 0.00405), (-0.0123, -0.001, 0.00425), (-0.0111, -0.005, 0.00405), (-0.0111, -0.005, 0.00425), (-0.0111, -0.001, 0.00405), (-0.0111, -0.001, 0.00425)]
            color3f[] primvars:displayColor = [(0.095, 0.1, 0.11)]
            uniform token subdivisionScheme = "none"
        }

        def Mesh "contact_tip_03" (
            prepend apiSchemas = ["MaterialBindingAPI"]
            customData = {
                bool newton_collision = 0
            }
        )
        {
            int[] faceVertexCounts = [3, 3, 3, 3, 3, 3, 3, 3, 3, 3, 3, 3]
            int[] faceVertexIndices = [1, 3, 0, 4, 1, 0, 0, 3, 2, 2, 4, 0, 1, 7, 3, 5, 1, 4, 5, 7, 1, 3, 7, 2, 6, 4, 2, 2, 7, 6, 6, 5, 4, 7, 5, 6]
            rel material:binding = </Looks/M_99844c>
            point3f[] points = [(-0.011975, -0.004, 0.00419), (-0.011975, -0.004, 0.00441), (-0.011975, -0.002, 0.00419), (-0.011975, -0.002, 0.00441), (-0.011425, -0.004, 0.00419), (-0.011425, -0.004, 0.00441), (-0.011425, -0.002, 0.00419), (-0.011425, -0.002, 0.00441)]
            color3f[] primvars:displayColor = [(0.6, 0.52, 0.3)]
            uniform token subdivisionScheme = "none"
        }

        def Mesh "contact_recess_04" (
            prepend apiSchemas = ["MaterialBindingAPI"]
            customData = {
                bool newton_collision = 0
            }
        )
        {
            int[] faceVertexCounts = [3, 3, 3, 3, 3, 3, 3, 3, 3, 3, 3, 3]
            int[] faceVertexIndices = [1, 3, 0, 4, 1, 0, 0, 3, 2, 2, 4, 0, 1, 7, 3, 5, 1, 4, 5, 7, 1, 3, 7, 2, 6, 4, 2, 2, 7, 6, 6, 5, 4, 7, 5, 6]
            rel material:binding = </Looks/M_18191c>
            point3f[] points = [(-0.0105, -0.005, 0.00405), (-0.0105, -0.005, 0.00425), (-0.0105, -0.001, 0.00405), (-0.0105, -0.001, 0.00425), (-0.0093, -0.005, 0.00405), (-0.0093, -0.005, 0.00425), (-0.0093, -0.001, 0.00405), (-0.0093, -0.001, 0.00425)]
            color3f[] primvars:displayColor = [(0.095, 0.1, 0.11)]
            uniform token subdivisionScheme = "none"
        }

        def Mesh "contact_tip_04" (
            prepend apiSchemas = ["MaterialBindingAPI"]
            customData = {
                bool newton_collision = 0
            }
        )
        {
            int[] faceVertexCounts = [3, 3, 3, 3, 3, 3, 3, 3, 3, 3, 3, 3]
            int[] faceVertexIndices = [1, 3, 0, 4, 1, 0, 0, 3, 2, 2, 4, 0, 1, 7, 3, 5, 1, 4, 5, 7, 1, 3, 7, 2, 6, 4, 2, 2, 7, 6, 6, 5, 4, 7, 5, 6]
            rel material:binding = </Looks/M_99844c>
            point3f[] points = [(-0.010175, -0.004, 0.00419), (-0.010175, -0.004, 0.00441), (-0.010175, -0.002, 0.00419), (-0.010175, -0.002, 0.00441), (-0.009625, -0.004, 0.00419), (-0.009625, -0.004, 0.00441), (-0.009625, -0.002, 0.00419), (-0.009625, -0.002, 0.00441)]
            color3f[] primvars:displayColor = [(0.6, 0.52, 0.3)]
            uniform token subdivisionScheme = "none"
        }

        def Mesh "contact_recess_05" (
            prepend apiSchemas = ["MaterialBindingAPI"]
            customData = {
                bool newton_collision = 0
            }
        )
        {
            int[] faceVertexCounts = [3, 3, 3, 3, 3, 3, 3, 3, 3, 3, 3, 3]
            int[] faceVertexIndices = [1, 3, 0, 4, 1, 0, 0, 3, 2, 2, 4, 0, 1, 7, 3, 5, 1, 4, 5, 7, 1, 3, 7, 2, 6, 4, 2, 2, 7, 6, 6, 5, 4, 7, 5, 6]
            rel material:binding = </Looks/M_18191c>
            point3f[] points = [(-0.0087, -0.005, 0.00405), (-0.0087, -0.005, 0.00425), (-0.0087, -0.001, 0.00405), (-0.0087, -0.001, 0.00425), (-0.0075, -0.005, 0.00405), (-0.0075, -0.005, 0.00425), (-0.0075, -0.001, 0.00405), (-0.0075, -0.001, 0.00425)]
            color3f[] primvars:displayColor = [(0.095, 0.1, 0.11)]
            uniform token subdivisionScheme = "none"
        }

        def Mesh "contact_tip_05" (
            prepend apiSchemas = ["MaterialBindingAPI"]
            customData = {
                bool newton_collision = 0
            }
        )
        {
            int[] faceVertexCounts = [3, 3, 3, 3, 3, 3, 3, 3, 3, 3, 3, 3]
            int[] faceVertexIndices = [1, 3, 0, 4, 1, 0, 0, 3, 2, 2, 4, 0, 1, 7, 3, 5, 1, 4, 5, 7, 1, 3, 7, 2, 6, 4, 2, 2, 7, 6, 6, 5, 4, 7, 5, 6]
            rel material:binding = </Looks/M_99844c>
            point3f[] points = [(-0.008375, -0.004, 0.00419), (-0.008375, -0.004, 0.00441), (-0.008375, -0.002, 0.00419), (-0.008375, -0.002, 0.00441), (-0.007825, -0.004, 0.00419), (-0.007825, -0.004, 0.00441), (-0.007825, -0.002, 0.00419), (-0.007825, -0.002, 0.00441)]
            color3f[] primvars:displayColor = [(0.6, 0.52, 0.3)]
            uniform token subdivisionScheme = "none"
        }

        def Mesh "contact_recess_06" (
            prepend apiSchemas = ["MaterialBindingAPI"]
            customData = {
                bool newton_collision = 0
            }
        )
        {
            int[] faceVertexCounts = [3, 3, 3, 3, 3, 3, 3, 3, 3, 3, 3, 3]
            int[] faceVertexIndices = [1, 3, 0, 4, 1, 0, 0, 3, 2, 2, 4, 0, 1, 7, 3, 5, 1, 4, 5, 7, 1, 3, 7, 2, 6, 4, 2, 2, 7, 6, 6, 5, 4, 7, 5, 6]
            rel material:binding = </Looks/M_18191c>
            point3f[] points = [(-0.0069, -0.005, 0.00405), (-0.0069, -0.005, 0.00425), (-0.0069, -0.001, 0.00405), (-0.0069, -0.001, 0.00425), (-0.0057, -0.005, 0.00405), (-0.0057, -0.005, 0.00425), (-0.0057, -0.001, 0.00405), (-0.0057, -0.001, 0.00425)]
            color3f[] primvars:displayColor = [(0.095, 0.1, 0.11)]
            uniform token subdivisionScheme = "none"
        }

        def Mesh "contact_tip_06" (
            prepend apiSchemas = ["MaterialBindingAPI"]
            customData = {
                bool newton_collision = 0
            }
        )
        {
            int[] faceVertexCounts = [3, 3, 3, 3, 3, 3, 3, 3, 3, 3, 3, 3]
            int[] faceVertexIndices = [1, 3, 0, 4, 1, 0, 0, 3, 2, 2, 4, 0, 1, 7, 3, 5, 1, 4, 5, 7, 1, 3, 7, 2, 6, 4, 2, 2, 7, 6, 6, 5, 4, 7, 5, 6]
            rel material:binding = </Looks/M_99844c>
            point3f[] points = [(-0.006575, -0.004, 0.00419), (-0.006575, -0.004, 0.00441), (-0.006575, -0.002, 0.00419), (-0.006575, -0.002, 0.00441), (-0.006025, -0.004, 0.00419), (-0.006025, -0.004, 0.00441), (-0.006025, -0.002, 0.00419), (-0.006025, -0.002, 0.00441)]
            color3f[] primvars:displayColor = [(0.6, 0.52, 0.3)]
            uniform token subdivisionScheme = "none"
        }

        def Mesh "contact_recess_07" (
            prepend apiSchemas = ["MaterialBindingAPI"]
            customData = {
                bool newton_collision = 0
            }
        )
        {
            int[] faceVertexCounts = [3, 3, 3, 3, 3, 3, 3, 3, 3, 3, 3, 3]
            int[] faceVertexIndices = [1, 3, 0, 4, 1, 0, 0, 3, 2, 2, 4, 0, 1, 7, 3, 5, 1, 4, 5, 7, 1, 3, 7, 2, 6, 4, 2, 2, 7, 6, 6, 5, 4, 7, 5, 6]
            rel material:binding = </Looks/M_18191c>
            point3f[] points = [(-0.0051, -0.005, 0.00405), (-0.0051, -0.005, 0.00425), (-0.0051, -0.001, 0.00405), (-0.0051, -0.001, 0.00425), (-0.0039, -0.005, 0.00405), (-0.0039, -0.005, 0.00425), (-0.0039, -0.001, 0.00405), (-0.0039, -0.001, 0.00425)]
            color3f[] primvars:displayColor = [(0.095, 0.1, 0.11)]
            uniform token subdivisionScheme = "none"
        }

        def Mesh "contact_tip_07" (
            prepend apiSchemas = ["MaterialBindingAPI"]
            customData = {
                bool newton_collision = 0
            }
        )
        {
            int[] faceVertexCounts = [3, 3, 3, 3, 3, 3, 3, 3, 3, 3, 3, 3]
            int[] faceVertexIndices = [1, 3, 0, 4, 1, 0, 0, 3, 2, 2, 4, 0, 1, 7, 3, 5, 1, 4, 5, 7, 1, 3, 7, 2, 6, 4, 2, 2, 7, 6, 6, 5, 4, 7, 5, 6]
            rel material:binding = </Looks/M_99844c>
            point3f[] points = [(-0.004775, -0.004, 0.00419), (-0.004775, -0.004, 0.00441), (-0.004775, -0.002, 0.00419), (-0.004775, -0.002, 0.00441), (-0.004225, -0.004, 0.00419), (-0.004225, -0.004, 0.00441), (-0.004225, -0.002, 0.00419), (-0.004225, -0.002, 0.00441)]
            color3f[] primvars:displayColor = [(0.6, 0.52, 0.3)]
            uniform token subdivisionScheme = "none"
        }

        def Mesh "contact_recess_08" (
            prepend apiSchemas = ["MaterialBindingAPI"]
            customData = {
                bool newton_collision = 0
            }
        )
        {
            int[] faceVertexCounts = [3, 3, 3, 3, 3, 3, 3, 3, 3, 3, 3, 3]
            int[] faceVertexIndices = [1, 3, 0, 4, 1, 0, 0, 3, 2, 2, 4, 0, 1, 7, 3, 5, 1, 4, 5, 7, 1, 3, 7, 2, 6, 4, 2, 2, 7, 6, 6, 5, 4, 7, 5, 6]
            rel material:binding = </Looks/M_18191c>
            point3f[] points = [(-0.0033, -0.005, 0.00405), (-0.0033, -0.005, 0.00425), (-0.0033, -0.001, 0.00405), (-0.0033, -0.001, 0.00425), (-0.0021, -0.005, 0.00405), (-0.0021, -0.005, 0.00425), (-0.0021, -0.001, 0.00405), (-0.0021, -0.001, 0.00425)]
            color3f[] primvars:displayColor = [(0.095, 0.1, 0.11)]
            uniform token subdivisionScheme = "none"
        }

        def Mesh "contact_tip_08" (
            prepend apiSchemas = ["MaterialBindingAPI"]
            customData = {
                bool newton_collision = 0
            }
        )
        {
            int[] faceVertexCounts = [3, 3, 3, 3, 3, 3, 3, 3, 3, 3, 3, 3]
            int[] faceVertexIndices = [1, 3, 0, 4, 1, 0, 0, 3, 2, 2, 4, 0, 1, 7, 3, 5, 1, 4, 5, 7, 1, 3, 7, 2, 6, 4, 2, 2, 7, 6, 6, 5, 4, 7, 5, 6]
            rel material:binding = </Looks/M_99844c>
            point3f[] points = [(-0.002975, -0.004, 0.00419), (-0.002975, -0.004, 0.00441), (-0.002975, -0.002, 0.00419), (-0.002975, -0.002, 0.00441), (-0.002425, -0.004, 0.00419), (-0.002425, -0.004, 0.00441), (-0.002425, -0.002, 0.00419), (-0.002425, -0.002, 0.00441)]
            color3f[] primvars:displayColor = [(0.6, 0.52, 0.3)]
            uniform token subdivisionScheme = "none"
        }

        def Mesh "contact_recess_09" (
            prepend apiSchemas = ["MaterialBindingAPI"]
            customData = {
                bool newton_collision = 0
            }
        )
        {
            int[] faceVertexCounts = [3, 3, 3, 3, 3, 3, 3, 3, 3, 3, 3, 3]
            int[] faceVertexIndices = [1, 3, 0, 4, 1, 0, 0, 3, 2, 2, 4, 0, 1, 7, 3, 5, 1, 4, 5, 7, 1, 3, 7, 2, 6, 4, 2, 2, 7, 6, 6, 5, 4, 7, 5, 6]
            rel material:binding = </Looks/M_18191c>
            point3f[] points = [(-0.0015, -0.005, 0.00405), (-0.0015, -0.005, 0.00425), (-0.0015, -0.001, 0.00405), (-0.0015, -0.001, 0.00425), (-0.0003, -0.005, 0.00405), (-0.0003, -0.005, 0.00425), (-0.0003, -0.001, 0.00405), (-0.0003, -0.001, 0.00425)]
            color3f[] primvars:displayColor = [(0.095, 0.1, 0.11)]
            uniform token subdivisionScheme = "none"
        }

        def Mesh "contact_tip_09" (
            prepend apiSchemas = ["MaterialBindingAPI"]
            customData = {
                bool newton_collision = 0
            }
        )
        {
            int[] faceVertexCounts = [3, 3, 3, 3, 3, 3, 3, 3, 3, 3, 3, 3]
            int[] faceVertexIndices = [1, 3, 0, 4, 1, 0, 0, 3, 2, 2, 4, 0, 1, 7, 3, 5, 1, 4, 5, 7, 1, 3, 7, 2, 6, 4, 2, 2, 7, 6, 6, 5, 4, 7, 5, 6]
            rel material:binding = </Looks/M_99844c>
            point3f[] points = [(-0.001175, -0.004, 0.00419), (-0.001175, -0.004, 0.00441), (-0.001175, -0.002, 0.00419), (-0.001175, -0.002, 0.00441), (-0.000625, -0.004, 0.00419), (-0.000625, -0.004, 0.00441), (-0.000625, -0.002, 0.00419), (-0.000625, -0.002, 0.00441)]
            color3f[] primvars:displayColor = [(0.6, 0.52, 0.3)]
            uniform token subdivisionScheme = "none"
        }

        def Mesh "contact_recess_10" (
            prepend apiSchemas = ["MaterialBindingAPI"]
            customData = {
                bool newton_collision = 0
            }
        )
        {
            int[] faceVertexCounts = [3, 3, 3, 3, 3, 3, 3, 3, 3, 3, 3, 3]
            int[] faceVertexIndices = [1, 3, 0, 4, 1, 0, 0, 3, 2, 2, 4, 0, 1, 7, 3, 5, 1, 4, 5, 7, 1, 3, 7, 2, 6, 4, 2, 2, 7, 6, 6, 5, 4, 7, 5, 6]
            rel material:binding = </Looks/M_18191c>
            point3f[] points = [(0.0003, -0.005, 0.00405), (0.0003, -0.005, 0.00425), (0.0003, -0.001, 0.00405), (0.0003, -0.001, 0.00425), (0.0015, -0.005, 0.00405), (0.0015, -0.005, 0.00425), (0.0015, -0.001, 0.00405), (0.0015, -0.001, 0.00425)]
            color3f[] primvars:displayColor = [(0.095, 0.1, 0.11)]
            uniform token subdivisionScheme = "none"
        }

        def Mesh "contact_tip_10" (
            prepend apiSchemas = ["MaterialBindingAPI"]
            customData = {
                bool newton_collision = 0
            }
        )
        {
            int[] faceVertexCounts = [3, 3, 3, 3, 3, 3, 3, 3, 3, 3, 3, 3]
            int[] faceVertexIndices = [1, 3, 0, 4, 1, 0, 0, 3, 2, 2, 4, 0, 1, 7, 3, 5, 1, 4, 5, 7, 1, 3, 7, 2, 6, 4, 2, 2, 7, 6, 6, 5, 4, 7, 5, 6]
            rel material:binding = </Looks/M_99844c>
            point3f[] points = [(0.000625, -0.004, 0.00419), (0.000625, -0.004, 0.00441), (0.000625, -0.002, 0.00419), (0.000625, -0.002, 0.00441), (0.001175, -0.004, 0.00419), (0.001175, -0.004, 0.00441), (0.001175, -0.002, 0.00419), (0.001175, -0.002, 0.00441)]
            color3f[] primvars:displayColor = [(0.6, 0.52, 0.3)]
            uniform token subdivisionScheme = "none"
        }

        def Mesh "contact_recess_11" (
            prepend apiSchemas = ["MaterialBindingAPI"]
            customData = {
                bool newton_collision = 0
            }
        )
        {
            int[] faceVertexCounts = [3, 3, 3, 3, 3, 3, 3, 3, 3, 3, 3, 3]
            int[] faceVertexIndices = [1, 3, 0, 4, 1, 0, 0, 3, 2, 2, 4, 0, 1, 7, 3, 5, 1, 4, 5, 7, 1, 3, 7, 2, 6, 4, 2, 2, 7, 6, 6, 5, 4, 7, 5, 6]
            rel material:binding = </Looks/M_18191c>
            point3f[] points = [(0.0021, -0.005, 0.00405), (0.0021, -0.005, 0.00425), (0.0021, -0.001, 0.00405), (0.0021, -0.001, 0.00425), (0.0033, -0.005, 0.00405), (0.0033, -0.005, 0.00425), (0.0033, -0.001, 0.00405), (0.0033, -0.001, 0.00425)]
            color3f[] primvars:displayColor = [(0.095, 0.1, 0.11)]
            uniform token subdivisionScheme = "none"
        }

        def Mesh "contact_tip_11" (
            prepend apiSchemas = ["MaterialBindingAPI"]
            customData = {
                bool newton_collision = 0
            }
        )
        {
            int[] faceVertexCounts = [3, 3, 3, 3, 3, 3, 3, 3, 3, 3, 3, 3]
            int[] faceVertexIndices = [1, 3, 0, 4, 1, 0, 0, 3, 2, 2, 4, 0, 1, 7, 3, 5, 1, 4, 5, 7, 1, 3, 7, 2, 6, 4, 2, 2, 7, 6, 6, 5, 4, 7, 5, 6]
            rel material:binding = </Looks/M_99844c>
            point3f[] points = [(0.002425, -0.004, 0.00419), (0.002425, -0.004, 0.00441), (0.002425, -0.002, 0.00419), (0.002425, -0.002, 0.00441), (0.002975, -0.004, 0.00419), (0.002975, -0.004, 0.00441), (0.002975, -0.002, 0.00419), (0.002975, -0.002, 0.00441)]
            color3f[] primvars:displayColor = [(0.6, 0.52, 0.3)]
            uniform token subdivisionScheme = "none"
        }

        def Mesh "contact_recess_12" (
            prepend apiSchemas = ["MaterialBindingAPI"]
            customData = {
                bool newton_collision = 0
            }
        )
        {
            int[] faceVertexCounts = [3, 3, 3, 3, 3, 3, 3, 3, 3, 3, 3, 3]
            int[] faceVertexIndices = [1, 3, 0, 4, 1, 0, 0, 3, 2, 2, 4, 0, 1, 7, 3, 5, 1, 4, 5, 7, 1, 3, 7, 2, 6, 4, 2, 2, 7, 6, 6, 5, 4, 7, 5, 6]
            rel material:binding = </Looks/M_18191c>
            point3f[] points = [(0.0039, -0.005, 0.00405), (0.0039, -0.005, 0.00425), (0.0039, -0.001, 0.00405), (0.0039, -0.001, 0.00425), (0.0051, -0.005, 0.00405), (0.0051, -0.005, 0.00425), (0.0051, -0.001, 0.00405), (0.0051, -0.001, 0.00425)]
            color3f[] primvars:displayColor = [(0.095, 0.1, 0.11)]
            uniform token subdivisionScheme = "none"
        }

        def Mesh "contact_tip_12" (
            prepend apiSchemas = ["MaterialBindingAPI"]
            customData = {
                bool newton_collision = 0
            }
        )
        {
            int[] faceVertexCounts = [3, 3, 3, 3, 3, 3, 3, 3, 3, 3, 3, 3]
            int[] faceVertexIndices = [1, 3, 0, 4, 1, 0, 0, 3, 2, 2, 4, 0, 1, 7, 3, 5, 1, 4, 5, 7, 1, 3, 7, 2, 6, 4, 2, 2, 7, 6, 6, 5, 4, 7, 5, 6]
            rel material:binding = </Looks/M_99844c>
            point3f[] points = [(0.004225, -0.004, 0.00419), (0.004225, -0.004, 0.00441), (0.004225, -0.002, 0.00419), (0.004225, -0.002, 0.00441), (0.004775, -0.004, 0.00419), (0.004775, -0.004, 0.00441), (0.004775, -0.002, 0.00419), (0.004775, -0.002, 0.00441)]
            color3f[] primvars:displayColor = [(0.6, 0.52, 0.3)]
            uniform token subdivisionScheme = "none"
        }

        def Mesh "contact_recess_13" (
            prepend apiSchemas = ["MaterialBindingAPI"]
            customData = {
                bool newton_collision = 0
            }
        )
        {
            int[] faceVertexCounts = [3, 3, 3, 3, 3, 3, 3, 3, 3, 3, 3, 3]
            int[] faceVertexIndices = [1, 3, 0, 4, 1, 0, 0, 3, 2, 2, 4, 0, 1, 7, 3, 5, 1, 4, 5, 7, 1, 3, 7, 2, 6, 4, 2, 2, 7, 6, 6, 5, 4, 7, 5, 6]
            rel material:binding = </Looks/M_18191c>
            point3f[] points = [(0.0057, -0.005, 0.00405), (0.0057, -0.005, 0.00425), (0.0057, -0.001, 0.00405), (0.0057, -0.001, 0.00425), (0.0069, -0.005, 0.00405), (0.0069, -0.005, 0.00425), (0.0069, -0.001, 0.00405), (0.0069, -0.001, 0.00425)]
            color3f[] primvars:displayColor = [(0.095, 0.1, 0.11)]
            uniform token subdivisionScheme = "none"
        }

        def Mesh "contact_tip_13" (
            prepend apiSchemas = ["MaterialBindingAPI"]
            customData = {
                bool newton_collision = 0
            }
        )
        {
            int[] faceVertexCounts = [3, 3, 3, 3, 3, 3, 3, 3, 3, 3, 3, 3]
            int[] faceVertexIndices = [1, 3, 0, 4, 1, 0, 0, 3, 2, 2, 4, 0, 1, 7, 3, 5, 1, 4, 5, 7, 1, 3, 7, 2, 6, 4, 2, 2, 7, 6, 6, 5, 4, 7, 5, 6]
            rel material:binding = </Looks/M_99844c>
            point3f[] points = [(0.006025, -0.004, 0.00419), (0.006025, -0.004, 0.00441), (0.006025, -0.002, 0.00419), (0.006025, -0.002, 0.00441), (0.006575, -0.004, 0.00419), (0.006575, -0.004, 0.00441), (0.006575, -0.002, 0.00419), (0.006575, -0.002, 0.00441)]
            color3f[] primvars:displayColor = [(0.6, 0.52, 0.3)]
            uniform token subdivisionScheme = "none"
        }

        def Mesh "contact_recess_14" (
            prepend apiSchemas = ["MaterialBindingAPI"]
            customData = {
                bool newton_collision = 0
            }
        )
        {
            int[] faceVertexCounts = [3, 3, 3, 3, 3, 3, 3, 3, 3, 3, 3, 3]
            int[] faceVertexIndices = [1, 3, 0, 4, 1, 0, 0, 3, 2, 2, 4, 0, 1, 7, 3, 5, 1, 4, 5, 7, 1, 3, 7, 2, 6, 4, 2, 2, 7, 6, 6, 5, 4, 7, 5, 6]
            rel material:binding = </Looks/M_18191c>
            point3f[] points = [(0.0075, -0.005, 0.00405), (0.0075, -0.005, 0.00425), (0.0075, -0.001, 0.00405), (0.0075, -0.001, 0.00425), (0.0087, -0.005, 0.00405), (0.0087, -0.005, 0.00425), (0.0087, -0.001, 0.00405), (0.0087, -0.001, 0.00425)]
            color3f[] primvars:displayColor = [(0.095, 0.1, 0.11)]
            uniform token subdivisionScheme = "none"
        }

        def Mesh "contact_tip_14" (
            prepend apiSchemas = ["MaterialBindingAPI"]
            customData = {
                bool newton_collision = 0
            }
        )
        {
            int[] faceVertexCounts = [3, 3, 3, 3, 3, 3, 3, 3, 3, 3, 3, 3]
            int[] faceVertexIndices = [1, 3, 0, 4, 1, 0, 0, 3, 2, 2, 4, 0, 1, 7, 3, 5, 1, 4, 5, 7, 1, 3, 7, 2, 6, 4, 2, 2, 7, 6, 6, 5, 4, 7, 5, 6]
            rel material:binding = </Looks/M_99844c>
            point3f[] points = [(0.007825, -0.004, 0.00419), (0.007825, -0.004, 0.00441), (0.007825, -0.002, 0.00419), (0.007825, -0.002, 0.00441), (0.008375, -0.004, 0.00419), (0.008375, -0.004, 0.00441), (0.008375, -0.002, 0.00419), (0.008375, -0.002, 0.00441)]
            color3f[] primvars:displayColor = [(0.6, 0.52, 0.3)]
            uniform token subdivisionScheme = "none"
        }

        def Mesh "contact_recess_15" (
            prepend apiSchemas = ["MaterialBindingAPI"]
            customData = {
                bool newton_collision = 0
            }
        )
        {
            int[] faceVertexCounts = [3, 3, 3, 3, 3, 3, 3, 3, 3, 3, 3, 3]
            int[] faceVertexIndices = [1, 3, 0, 4, 1, 0, 0, 3, 2, 2, 4, 0, 1, 7, 3, 5, 1, 4, 5, 7, 1, 3, 7, 2, 6, 4, 2, 2, 7, 6, 6, 5, 4, 7, 5, 6]
            rel material:binding = </Looks/M_18191c>
            point3f[] points = [(0.0093, -0.005, 0.00405), (0.0093, -0.005, 0.00425), (0.0093, -0.001, 0.00405), (0.0093, -0.001, 0.00425), (0.0105, -0.005, 0.00405), (0.0105, -0.005, 0.00425), (0.0105, -0.001, 0.00405), (0.0105, -0.001, 0.00425)]
            color3f[] primvars:displayColor = [(0.095, 0.1, 0.11)]
            uniform token subdivisionScheme = "none"
        }

        def Mesh "contact_tip_15" (
            prepend apiSchemas = ["MaterialBindingAPI"]
            customData = {
                bool newton_collision = 0
            }
        )
        {
            int[] faceVertexCounts = [3, 3, 3, 3, 3, 3, 3, 3, 3, 3, 3, 3]
            int[] faceVertexIndices = [1, 3, 0, 4, 1, 0, 0, 3, 2, 2, 4, 0, 1, 7, 3, 5, 1, 4, 5, 7, 1, 3, 7, 2, 6, 4, 2, 2, 7, 6, 6, 5, 4, 7, 5, 6]
            rel material:binding = </Looks/M_99844c>
            point3f[] points = [(0.009625, -0.004, 0.00419), (0.009625, -0.004, 0.00441), (0.009625, -0.002, 0.00419), (0.009625, -0.002, 0.00441), (0.010175, -0.004, 0.00419), (0.010175, -0.004, 0.00441), (0.010175, -0.002, 0.00419), (0.010175, -0.002, 0.00441)]
            color3f[] primvars:displayColor = [(0.6, 0.52, 0.3)]
            uniform token subdivisionScheme = "none"
        }

        def Mesh "contact_recess_16" (
            prepend apiSchemas = ["MaterialBindingAPI"]
            customData = {
                bool newton_collision = 0
            }
        )
        {
            int[] faceVertexCounts = [3, 3, 3, 3, 3, 3, 3, 3, 3, 3, 3, 3]
            int[] faceVertexIndices = [1, 3, 0, 4, 1, 0, 0, 3, 2, 2, 4, 0, 1, 7, 3, 5, 1, 4, 5, 7, 1, 3, 7, 2, 6, 4, 2, 2, 7, 6, 6, 5, 4, 7, 5, 6]
            rel material:binding = </Looks/M_18191c>
            point3f[] points = [(0.0111, -0.005, 0.00405), (0.0111, -0.005, 0.00425), (0.0111, -0.001, 0.00405), (0.0111, -0.001, 0.00425), (0.0123, -0.005, 0.00405), (0.0123, -0.005, 0.00425), (0.0123, -0.001, 0.00405), (0.0123, -0.001, 0.00425)]
            color3f[] primvars:displayColor = [(0.095, 0.1, 0.11)]
            uniform token subdivisionScheme = "none"
        }

        def Mesh "contact_tip_16" (
            prepend apiSchemas = ["MaterialBindingAPI"]
            customData = {
                bool newton_collision = 0
            }
        )
        {
            int[] faceVertexCounts = [3, 3, 3, 3, 3, 3, 3, 3, 3, 3, 3, 3]
            int[] faceVertexIndices = [1, 3, 0, 4, 1, 0, 0, 3, 2, 2, 4, 0, 1, 7, 3, 5, 1, 4, 5, 7, 1, 3, 7, 2, 6, 4, 2, 2, 7, 6, 6, 5, 4, 7, 5, 6]
            rel material:binding = </Looks/M_99844c>
            point3f[] points = [(0.011425, -0.004, 0.00419), (0.011425, -0.004, 0.00441), (0.011425, -0.002, 0.00419), (0.011425, -0.002, 0.00441), (0.011975, -0.004, 0.00419), (0.011975, -0.004, 0.00441), (0.011975, -0.002, 0.00419), (0.011975, -0.002, 0.00441)]
            color3f[] primvars:displayColor = [(0.6, 0.52, 0.3)]
            uniform token subdivisionScheme = "none"
        }

        def Mesh "contact_recess_17" (
            prepend apiSchemas = ["MaterialBindingAPI"]
            customData = {
                bool newton_collision = 0
            }
        )
        {
            int[] faceVertexCounts = [3, 3, 3, 3, 3, 3, 3, 3, 3, 3, 3, 3]
            int[] faceVertexIndices = [1, 3, 0, 4, 1, 0, 0, 3, 2, 2, 4, 0, 1, 7, 3, 5, 1, 4, 5, 7, 1, 3, 7, 2, 6, 4, 2, 2, 7, 6, 6, 5, 4, 7, 5, 6]
            rel material:binding = </Looks/M_18191c>
            point3f[] points = [(0.0129, -0.005, 0.00405), (0.0129, -0.005, 0.00425), (0.0129, -0.001, 0.00405), (0.0129, -0.001, 0.00425), (0.0141, -0.005, 0.00405), (0.0141, -0.005, 0.00425), (0.0141, -0.001, 0.00405), (0.0141, -0.001, 0.00425)]
            color3f[] primvars:displayColor = [(0.095, 0.1, 0.11)]
            uniform token subdivisionScheme = "none"
        }

        def Mesh "contact_tip_17" (
            prepend apiSchemas = ["MaterialBindingAPI"]
            customData = {
                bool newton_collision = 0
            }
        )
        {
            int[] faceVertexCounts = [3, 3, 3, 3, 3, 3, 3, 3, 3, 3, 3, 3]
            int[] faceVertexIndices = [1, 3, 0, 4, 1, 0, 0, 3, 2, 2, 4, 0, 1, 7, 3, 5, 1, 4, 5, 7, 1, 3, 7, 2, 6, 4, 2, 2, 7, 6, 6, 5, 4, 7, 5, 6]
            rel material:binding = </Looks/M_99844c>
            point3f[] points = [(0.013225, -0.004, 0.00419), (0.013225, -0.004, 0.00441), (0.013225, -0.002, 0.00419), (0.013225, -0.002, 0.00441), (0.013775, -0.004, 0.00419), (0.013775, -0.004, 0.00441), (0.013775, -0.002, 0.00419), (0.013775, -0.002, 0.00441)]
            color3f[] primvars:displayColor = [(0.6, 0.52, 0.3)]
            uniform token subdivisionScheme = "none"
        }

        def Mesh "contact_recess_18" (
            prepend apiSchemas = ["MaterialBindingAPI"]
            customData = {
                bool newton_collision = 0
            }
        )
        {
            int[] faceVertexCounts = [3, 3, 3, 3, 3, 3, 3, 3, 3, 3, 3, 3]
            int[] faceVertexIndices = [1, 3, 0, 4, 1, 0, 0, 3, 2, 2, 4, 0, 1, 7, 3, 5, 1, 4, 5, 7, 1, 3, 7, 2, 6, 4, 2, 2, 7, 6, 6, 5, 4, 7, 5, 6]
            rel material:binding = </Looks/M_18191c>
            point3f[] points = [(0.0147, -0.005, 0.00405), (0.0147, -0.005, 0.00425), (0.0147, -0.001, 0.00405), (0.0147, -0.001, 0.00425), (0.0159, -0.005, 0.00405), (0.0159, -0.005, 0.00425), (0.0159, -0.001, 0.00405), (0.0159, -0.001, 0.00425)]
            color3f[] primvars:displayColor = [(0.095, 0.1, 0.11)]
            uniform token subdivisionScheme = "none"
        }

        def Mesh "contact_tip_18" (
            prepend apiSchemas = ["MaterialBindingAPI"]
            customData = {
                bool newton_collision = 0
            }
        )
        {
            int[] faceVertexCounts = [3, 3, 3, 3, 3, 3, 3, 3, 3, 3, 3, 3]
            int[] faceVertexIndices = [1, 3, 0, 4, 1, 0, 0, 3, 2, 2, 4, 0, 1, 7, 3, 5, 1, 4, 5, 7, 1, 3, 7, 2, 6, 4, 2, 2, 7, 6, 6, 5, 4, 7, 5, 6]
            rel material:binding = </Looks/M_99844c>
            point3f[] points = [(0.015025, -0.004, 0.00419), (0.015025, -0.004, 0.00441), (0.015025, -0.002, 0.00419), (0.015025, -0.002, 0.00441), (0.015575, -0.004, 0.00419), (0.015575, -0.004, 0.00441), (0.015575, -0.002, 0.00419), (0.015575, -0.002, 0.00441)]
            color3f[] primvars:displayColor = [(0.6, 0.52, 0.3)]
            uniform token subdivisionScheme = "none"
        }

        def Mesh "contact_recess_19" (
            prepend apiSchemas = ["MaterialBindingAPI"]
            customData = {
                bool newton_collision = 0
            }
        )
        {
            int[] faceVertexCounts = [3, 3, 3, 3, 3, 3, 3, 3, 3, 3, 3, 3]
            int[] faceVertexIndices = [1, 3, 0, 4, 1, 0, 0, 3, 2, 2, 4, 0, 1, 7, 3, 5, 1, 4, 5, 7, 1, 3, 7, 2, 6, 4, 2, 2, 7, 6, 6, 5, 4, 7, 5, 6]
            rel material:binding = </Looks/M_18191c>
            point3f[] points = [(0.0165, -0.005, 0.00405), (0.0165, -0.005, 0.00425), (0.0165, -0.001, 0.00405), (0.0165, -0.001, 0.00425), (0.0177, -0.005, 0.00405), (0.0177, -0.005, 0.00425), (0.0177, -0.001, 0.00405), (0.0177, -0.001, 0.00425)]
            color3f[] primvars:displayColor = [(0.095, 0.1, 0.11)]
            uniform token subdivisionScheme = "none"
        }

        def Mesh "contact_tip_19" (
            prepend apiSchemas = ["MaterialBindingAPI"]
            customData = {
                bool newton_collision = 0
            }
        )
        {
            int[] faceVertexCounts = [3, 3, 3, 3, 3, 3, 3, 3, 3, 3, 3, 3]
            int[] faceVertexIndices = [1, 3, 0, 4, 1, 0, 0, 3, 2, 2, 4, 0, 1, 7, 3, 5, 1, 4, 5, 7, 1, 3, 7, 2, 6, 4, 2, 2, 7, 6, 6, 5, 4, 7, 5, 6]
            rel material:binding = </Looks/M_99844c>
            point3f[] points = [(0.016825, -0.004, 0.00419), (0.016825, -0.004, 0.00441), (0.016825, -0.002, 0.00419), (0.016825, -0.002, 0.00441), (0.017375, -0.004, 0.00419), (0.017375, -0.004, 0.00441), (0.017375, -0.002, 0.00419), (0.017375, -0.002, 0.00441)]
            color3f[] primvars:displayColor = [(0.6, 0.52, 0.3)]
            uniform token subdivisionScheme = "none"
        }
    }
}

def "Looks"
{
    def Material "M_b7bfc4"
    {
        token outputs:surface.connect = </Looks/M_b7bfc4/Surface.outputs:surface>

        def Shader "Surface"
        {
            uniform token info:id = "UsdPreviewSurface"
            color3f inputs:diffuseColor = (0.72, 0.75, 0.77)
            float inputs:roughness = 0.38
            token outputs:surface
        }
    }

    def Material "M_0b309e"
    {
        token outputs:surface.connect = </Looks/M_0b309e/Surface.outputs:surface>

        def Shader "Surface"
        {
            uniform token info:id = "UsdPreviewSurface"
            color3f inputs:diffuseColor = (0.045, 0.19, 0.62)
            float inputs:roughness = 0.38
            token outputs:surface
        }
    }

    def Material "M_18191c"
    {
        token outputs:surface.connect = </Looks/M_18191c/Surface.outputs:surface>

        def Shader "Surface"
        {
            uniform token info:id = "UsdPreviewSurface"
            color3f inputs:diffuseColor = (0.095, 0.1, 0.11)
            float inputs:roughness = 0.38
            token outputs:surface
        }
    }

    def Material "M_99844c"
    {
        token outputs:surface.connect = </Looks/M_99844c/Surface.outputs:surface>

        def Shader "Surface"
        {
            uniform token info:id = "UsdPreviewSurface"
            color3f inputs:diffuseColor = (0.6, 0.52, 0.3)
            float inputs:roughness = 0.38
            token outputs:surface
        }
    }
}

