#usda 1.0
(
    defaultPrim = "Asset"
    metersPerUnit = 1
    upAxis = "Z"
)

def Xform "Asset"
{
    def "Base"
    {
        def Mesh "mounting_disc" (
            prepend apiSchemas = ["MaterialBindingAPI"]
            customData = {
                bool newton_collision = 1
            }
        )
        {
            int[] faceVertexCounts = [3, 3, 3, 3, 3, 3, 3, 3, 3, 3, 3, 3, 3, 3, 3, 3, 3, 3, 3, 3, 3, 3, 3, 3, 3, 3, 3, 3, 3, 3, 3, 3, 3, 3, 3, 3, 3, 3, 3, 3, 3, 3, 3, 3, 3, 3, 3, 3, 3, 3, 3, 3, 3, 3, 3, 3, 3, 3, 3, 3, 3, 3, 3, 3, 3, 3, 3, 3, 3, 3, 3, 3, 3, 3, 3, 3, 3, 3, 3, 3, 3, 3, 3, 3, 3, 3, 3, 3, 3, 3, 3, 3, 3, 3, 3, 3, 3, 3, 3, 3, 3, 3, 3, 3, 3, 3, 3, 3, 3, 3, 3, 3, 3, 3, 3, 3, 3, 3, 3, 3, 3, 3, 3, 3, 3, 3, 3, 3]
            int[] faceVertexIndices = [1, 0, 4, 1, 4, 2, 2, 4, 5, 2, 5, 3, 4, 0, 6, 4, 6, 5, 5, 6, 7, 5, 7, 3, 6, 0, 8, 6, 8, 7, 7, 8, 9, 7, 9, 3, 8, 0, 10, 8, 10, 9, 9, 10, 11, 9, 11, 3, 10, 0, 12, 10, 12, 11, 11, 12, 13, 11, 13, 3, 12, 0, 14, 12, 14, 13, 13, 14, 15, 13, 15, 3, 14, 0, 16, 14, 16, 15, 15, 16, 17, 15, 17, 3, 16, 0, 18, 16, 18, 17, 17, 18, 19, 17, 19, 3, 18, 0, 20, 18, 20, 19, 19, 20, 21, 19, 21, 3, 20, 0, 22, 20, 22, 21, 21, 22, 23, 21, 23, 3, 22, 0, 24, 22, 24, 23, 23, 24, 25, 23, 25, 3, 24, 0, 26, 24, 26, 25, 25, 26, 27, 25, 27, 3, 26, 0, 28, 26, 28, 27, 27, 28, 29, 27, 29, 3, 28, 0, 30, 28, 30, 29, 29, 30, 31, 29, 31, 3, 30, 0, 32, 30, 32, 31, 31, 32, 33, 31, 33, 3, 32, 0, 34, 32, 34, 33, 33, 34, 35, 33, 35, 3, 34, 0, 36, 34, 36, 35, 35, 36, 37, 35, 37, 3, 36, 0, 38, 36, 38, 37, 37, 38, 39, 37, 39, 3, 38, 0, 40, 38, 40, 39, 39, 40, 41, 39, 41, 3, 40, 0, 42, 40, 42, 41, 41, 42, 43, 41, 43, 3, 42, 0, 44, 42, 44, 43, 43, 44, 45, 43, 45, 3, 44, 0, 46, 44, 46, 45, 45, 46, 47, 45, 47, 3, 46, 0, 48, 46, 48, 47, 47, 48, 49, 47, 49, 3, 48, 0, 50, 48, 50, 49, 49, 50, 51, 49, 51, 3, 50, 0, 52, 50, 52, 51, 51, 52, 53, 51, 53, 3, 52, 0, 54, 52, 54, 53, 53, 54, 55, 53, 55, 3, 54, 0, 56, 54, 56, 55, 55, 56, 57, 55, 57, 3, 56, 0, 58, 56, 58, 57, 57, 58, 59, 57, 59, 3, 58, 0, 60, 58, 60, 59, 59, 60, 61, 59, 61, 3, 60, 0, 62, 60, 62, 61, 61, 62, 63, 61, 63, 3, 62, 0, 64, 62, 64, 63, 63, 64, 65, 63, 65, 3, 64, 0, 1, 64, 1, 65, 65, 1, 2, 65, 2, 3]
            rel material:binding = </Looks/M_9ea8b2>
            point3f[] points = [(0, 0, -0.002), (0.027, 0, -0.002), (0.027, 0, 0.001), (0, 0, 0.001), (0.026481202, 0.0052674385, -0.002), (0.026481202, 0.0052674385, 0.001), (0.024944747, 0.010332453, -0.002), (0.024944747, 0.010332453, 0.001), (0.02244968, 0.015000396, -0.002), (0.02244968, 0.015000396, 0.001), (0.019091884, 0.019091884, -0.002), (0.019091884, 0.019091884, 0.001), (0.015000396, 0.02244968, -0.002), (0.015000396, 0.02244968, 0.001), (0.010332453, 0.024944747, -0.002), (0.010332453, 0.024944747, 0.001), (0.0052674385, 0.026481202, -0.002), (0.0052674385, 0.026481202, 0.001), (1.6532732e-18, 0.027, -0.002), (1.6532732e-18, 0.027, 0.001), (-0.0052674385, 0.026481202, -0.002), (-0.0052674385, 0.026481202, 0.001), (-0.010332453, 0.024944747, -0.002), (-0.010332453, 0.024944747, 0.001), (-0.015000396, 0.02244968, -0.002), (-0.015000396, 0.02244968, 0.001), (-0.019091884, 0.019091884, -0.002), (-0.019091884, 0.019091884, 0.001), (-0.02244968, 0.015000396, -0.002), (-0.02244968, 0.015000396, 0.001), (-0.024944747, 0.010332453, -0.002), (-0.024944747, 0.010332453, 0.001), (-0.026481202, 0.0052674385, -0.002), (-0.026481202, 0.0052674385, 0.001), (-0.027, 3.3065463e-18, -0.002), (-0.027, 3.3065463e-18, 0.001), (-0.026481202, -0.0052674385, -0.002), (-0.026481202, -0.0052674385, 0.001), (-0.024944747, -0.010332453, -0.002), (-0.024944747, -0.010332453, 0.001), (-0.02244968, -0.015000396, -0.002), (-0.02244968, -0.015000396, 0.001), (-0.019091884, -0.019091884, -0.002), (-0.019091884, -0.019091884, 0.001), (-0.015000396, -0.02244968, -0.002), (-0.015000396, -0.02244968, 0.001), (-0.010332453, -0.024944747, -0.002), (-0.010332453, -0.024944747, 0.001), (-0.0052674385, -0.026481202, -0.002), (-0.0052674385, -0.026481202, 0.001), (-4.9598196e-18, -0.027, -0.002), (-4.9598196e-18, -0.027, 0.001), (0.0052674385, -0.026481202, -0.002), (0.0052674385, -0.026481202, 0.001), (0.010332453, -0.024944747, -0.002), (0.010332453, -0.024944747, 0.001), (0.015000396, -0.02244968, -0.002), (0.015000396, -0.02244968, 0.001), (0.019091884, -0.019091884, -0.002), (0.019091884, -0.019091884, 0.001), (0.02244968, -0.015000396, -0.002), (0.02244968, -0.015000396, 0.001), (0.024944747, -0.010332453, -0.002), (0.024944747, -0.010332453, 0.001), (0.026481202, -0.0052674385, -0.002), (0.026481202, -0.0052674385, 0.001)]
            color3f[] primvars:displayColor = [(0.62, 0.66, 0.7)]
            uniform token subdivisionScheme = "none"
        }

        def Mesh "pedestal" (
            prepend apiSchemas = ["MaterialBindingAPI"]
            customData = {
                bool newton_collision = 1
            }
        )
        {
            int[] faceVertexCounts = [3, 3, 3, 3, 3, 3, 3, 3, 3, 3, 3, 3, 3, 3, 3, 3, 3, 3, 3, 3, 3, 3, 3, 3, 3, 3, 3, 3, 3, 3, 3, 3, 3, 3, 3, 3, 3, 3, 3, 3, 3, 3, 3, 3, 3, 3, 3, 3, 3, 3, 3, 3, 3, 3, 3, 3, 3, 3, 3, 3, 3, 3, 3, 3, 3, 3, 3, 3, 3, 3, 3, 3, 3, 3, 3, 3, 3, 3, 3, 3, 3, 3, 3, 3, 3, 3, 3, 3, 3, 3, 3, 3, 3, 3, 3, 3, 3, 3, 3, 3, 3, 3, 3, 3, 3, 3, 3, 3, 3, 3, 3, 3, 3, 3, 3, 3, 3, 3, 3, 3, 3, 3, 3, 3, 3, 3, 3, 3]
            int[] faceVertexIndices = [1, 0, 4, 1, 4, 2, 2, 4, 5, 2, 5, 3, 4, 0, 6, 4, 6, 5, 5, 6, 7, 5, 7, 3, 6, 0, 8, 6, 8, 7, 7, 8, 9, 7, 9, 3, 8, 0, 10, 8, 10, 9, 9, 10, 11, 9, 11, 3, 10, 0, 12, 10, 12, 11, 11, 12, 13, 11, 13, 3, 12, 0, 14, 12, 14, 13, 13, 14, 15, 13, 15, 3, 14, 0, 16, 14, 16, 15, 15, 16, 17, 15, 17, 3, 16, 0, 18, 16, 18, 17, 17, 18, 19, 17, 19, 3, 18, 0, 20, 18, 20, 19, 19, 20, 21, 19, 21, 3, 20, 0, 22, 20, 22, 21, 21, 22, 23, 21, 23, 3, 22, 0, 24, 22, 24, 23, 23, 24, 25, 23, 25, 3, 24, 0, 26, 24, 26, 25, 25, 26, 27, 25, 27, 3, 26, 0, 28, 26, 28, 27, 27, 28, 29, 27, 29, 3, 28, 0, 30, 28, 30, 29, 29, 30, 31, 29, 31, 3, 30, 0, 32, 30, 32, 31, 31, 32, 33, 31, 33, 3, 32, 0, 34, 32, 34, 33, 33, 34, 35, 33, 35, 3, 34, 0, 36, 34, 36, 35, 35, 36, 37, 35, 37, 3, 36, 0, 38, 36, 38, 37, 37, 38, 39, 37, 39, 3, 38, 0, 40, 38, 40, 39, 39, 40, 41, 39, 41, 3, 40, 0, 42, 40, 42, 41, 41, 42, 43, 41, 43, 3, 42, 0, 44, 42, 44, 43, 43, 44, 45, 43, 45, 3, 44, 0, 46, 44, 46, 45, 45, 46, 47, 45, 47, 3, 46, 0, 48, 46, 48, 47, 47, 48, 49, 47, 49, 3, 48, 0, 50, 48, 50, 49, 49, 50, 51, 49, 51, 3, 50, 0, 52, 50, 52, 51, 51, 52, 53, 51, 53, 3, 52, 0, 54, 52, 54, 53, 53, 54, 55, 53, 55, 3, 54, 0, 56, 54, 56, 55, 55, 56, 57, 55, 57, 3, 56, 0, 58, 56, 58, 57, 57, 58, 59, 57, 59, 3, 58, 0, 60, 58, 60, 59, 59, 60, 61, 59, 61, 3, 60, 0, 62, 60, 62, 61, 61, 62, 63, 61, 63, 3, 62, 0, 64, 62, 64, 63, 63, 64, 65, 63, 65, 3, 64, 0, 1, 64, 1, 65, 65, 1, 2, 65, 2, 3]
            rel material:binding = </Looks/M_080b0d>
            point3f[] points = [(0, 0, 0.001), (0.021, 0, 0.001), (0.021, 0, 0.013), (0, 0, 0.013), (0.020596491, 0.004096897, 0.001), (0.020596491, 0.004096897, 0.013), (0.01940147, 0.008036352, 0.001), (0.01940147, 0.008036352, 0.013), (0.017460862, 0.011666975, 0.001), (0.017460862, 0.011666975, 0.013), (0.014849243, 0.014849243, 0.001), (0.014849243, 0.014849243, 0.013), (0.011666975, 0.017460862, 0.001), (0.011666975, 0.017460862, 0.013), (0.008036352, 0.01940147, 0.001), (0.008036352, 0.01940147, 0.013), (0.004096897, 0.020596491, 0.001), (0.004096897, 0.020596491, 0.013), (1.2858791e-18, 0.021, 0.001), (1.2858791e-18, 0.021, 0.013), (-0.004096897, 0.020596491, 0.001), (-0.004096897, 0.020596491, 0.013), (-0.008036352, 0.01940147, 0.001), (-0.008036352, 0.01940147, 0.013), (-0.011666975, 0.017460862, 0.001), (-0.011666975, 0.017460862, 0.013), (-0.014849243, 0.014849243, 0.001), (-0.014849243, 0.014849243, 0.013), (-0.017460862, 0.011666975, 0.001), (-0.017460862, 0.011666975, 0.013), (-0.01940147, 0.008036352, 0.001), (-0.01940147, 0.008036352, 0.013), (-0.020596491, 0.004096897, 0.001), (-0.020596491, 0.004096897, 0.013), (-0.021, 2.5717583e-18, 0.001), (-0.021, 2.5717583e-18, 0.013), (-0.020596491, -0.004096897, 0.001), (-0.020596491, -0.004096897, 0.013), (-0.01940147, -0.008036352, 0.001), (-0.01940147, -0.008036352, 0.013), (-0.017460862, -0.011666975, 0.001), (-0.017460862, -0.011666975, 0.013), (-0.014849243, -0.014849243, 0.001), (-0.014849243, -0.014849243, 0.013), (-0.011666975, -0.017460862, 0.001), (-0.011666975, -0.017460862, 0.013), (-0.008036352, -0.01940147, 0.001), (-0.008036352, -0.01940147, 0.013), (-0.004096897, -0.020596491, 0.001), (-0.004096897, -0.020596491, 0.013), (-3.8576374e-18, -0.021, 0.001), (-3.8576374e-18, -0.021, 0.013), (0.004096897, -0.020596491, 0.001), (0.004096897, -0.020596491, 0.013), (0.008036352, -0.01940147, 0.001), (0.008036352, -0.01940147, 0.013), (0.011666975, -0.017460862, 0.001), (0.011666975, -0.017460862, 0.013), (0.014849243, -0.014849243, 0.001), (0.014849243, -0.014849243, 0.013), (0.017460862, -0.011666975, 0.001), (0.017460862, -0.011666975, 0.013), (0.01940147, -0.008036352, 0.001), (0.01940147, -0.008036352, 0.013), (0.020596491, -0.004096897, 0.001), (0.020596491, -0.004096897, 0.013)]
            color3f[] primvars:displayColor = [(0.035, 0.045, 0.052)]
            uniform token subdivisionScheme = "none"
        }

        def Mesh "standoff_m1" (
            prepend apiSchemas = ["MaterialBindingAPI"]
            customData = {
                bool newton_collision = 0
            }
        )
        {
            int[] faceVertexCounts = [3, 3, 3, 3, 3, 3, 3, 3, 3, 3, 3, 3, 3, 3, 3, 3, 3, 3, 3, 3, 3, 3, 3, 3, 3, 3, 3, 3, 3, 3, 3, 3, 3, 3, 3, 3, 3, 3, 3, 3, 3, 3, 3, 3, 3, 3, 3, 3, 3, 3, 3, 3, 3, 3, 3, 3, 3, 3, 3, 3, 3, 3, 3, 3, 3, 3, 3, 3, 3, 3, 3, 3, 3, 3, 3, 3, 3, 3, 3, 3, 3, 3, 3, 3, 3, 3, 3, 3, 3, 3, 3, 3, 3, 3, 3, 3, 3, 3, 3, 3, 3, 3, 3, 3, 3, 3, 3, 3, 3, 3, 3, 3, 3, 3, 3, 3, 3, 3, 3, 3, 3, 3, 3, 3, 3, 3, 3, 3]
            int[] faceVertexIndices = [1, 0, 4, 1, 4, 2, 2, 4, 5, 2, 5, 3, 4, 0, 6, 4, 6, 5, 5, 6, 7, 5, 7, 3, 6, 0, 8, 6, 8, 7, 7, 8, 9, 7, 9, 3, 8, 0, 10, 8, 10, 9, 9, 10, 11, 9, 11, 3, 10, 0, 12, 10, 12, 11, 11, 12, 13, 11, 13, 3, 12, 0, 14, 12, 14, 13, 13, 14, 15, 13, 15, 3, 14, 0, 16, 14, 16, 15, 15, 16, 17, 15, 17, 3, 16, 0, 18, 16, 18, 17, 17, 18, 19, 17, 19, 3, 18, 0, 20, 18, 20, 19, 19, 20, 21, 19, 21, 3, 20, 0, 22, 20, 22, 21, 21, 22, 23, 21, 23, 3, 22, 0, 24, 22, 24, 23, 23, 24, 25, 23, 25, 3, 24, 0, 26, 24, 26, 25, 25, 26, 27, 25, 27, 3, 26, 0, 28, 26, 28, 27, 27, 28, 29, 27, 29, 3, 28, 0, 30, 28, 30, 29, 29, 30, 31, 29, 31, 3, 30, 0, 32, 30, 32, 31, 31, 32, 33, 31, 33, 3, 32, 0, 34, 32, 34, 33, 33, 34, 35, 33, 35, 3, 34, 0, 36, 34, 36, 35, 35, 36, 37, 35, 37, 3, 36, 0, 38, 36, 38, 37, 37, 38, 39, 37, 39, 3, 38, 0, 40, 38, 40, 39, 39, 40, 41, 39, 41, 3, 40, 0, 42, 40, 42, 41, 41, 42, 43, 41, 43, 3, 42, 0, 44, 42, 44, 43, 43, 44, 45, 43, 45, 3, 44, 0, 46, 44, 46, 45, 45, 46, 47, 45, 47, 3, 46, 0, 48, 46, 48, 47, 47, 48, 49, 47, 49, 3, 48, 0, 50, 48, 50, 49, 49, 50, 51, 49, 51, 3, 50, 0, 52, 50, 52, 51, 51, 52, 53, 51, 53, 3, 52, 0, 54, 52, 54, 53, 53, 54, 55, 53, 55, 3, 54, 0, 56, 54, 56, 55, 55, 56, 57, 55, 57, 3, 56, 0, 58, 56, 58, 57, 57, 58, 59, 57, 59, 3, 58, 0, 60, 58, 60, 59, 59, 60, 61, 59, 61, 3, 60, 0, 62, 60, 62, 61, 61, 62, 63, 61, 63, 3, 62, 0, 64, 62, 64, 63, 63, 64, 65, 63, 65, 3, 64, 0, 1, 64, 1, 65, 65, 1, 2, 65, 2, 3]
            rel material:binding = </Looks/M_9ea8b2>
            point3f[] points = [(-0.019, 0.012, 0.001), (-0.0164, 0.012, 0.001), (-0.0164, 0.012, 0.017), (-0.019, 0.012, 0.017), (-0.016449958, 0.012507235, 0.001), (-0.016449958, 0.012507235, 0.017), (-0.016597914, 0.012994977, 0.001), (-0.016597914, 0.012994977, 0.017), (-0.01683818, 0.013444482, 0.001), (-0.01683818, 0.013444482, 0.017), (-0.017161522, 0.013838477, 0.001), (-0.017161522, 0.013838477, 0.017), (-0.017555518, 0.014161821, 0.001), (-0.017555518, 0.014161821, 0.017), (-0.018005023, 0.014402087, 0.001), (-0.018005023, 0.014402087, 0.017), (-0.018492766, 0.014550041, 0.001), (-0.018492766, 0.014550041, 0.017), (-0.019, 0.0146, 0.001), (-0.019, 0.0146, 0.017), (-0.019507235, 0.014550041, 0.001), (-0.019507235, 0.014550041, 0.017), (-0.019994976, 0.014402087, 0.001), (-0.019994976, 0.014402087, 0.017), (-0.020444483, 0.014161821, 0.001), (-0.020444483, 0.014161821, 0.017), (-0.020838477, 0.013838477, 0.001), (-0.020838477, 0.013838477, 0.017), (-0.02116182, 0.013444482, 0.001), (-0.02116182, 0.013444482, 0.017), (-0.021402087, 0.012994977, 0.001), (-0.021402087, 0.012994977, 0.017), (-0.021550043, 0.012507235, 0.001), (-0.021550043, 0.012507235, 0.017), (-0.0216, 0.012, 0.001), (-0.0216, 0.012, 0.017), (-0.021550043, 0.0114927655, 0.001), (-0.021550043, 0.0114927655, 0.017), (-0.021402087, 0.0110050235, 0.001), (-0.021402087, 0.0110050235, 0.017), (-0.02116182, 0.010555518, 0.001), (-0.02116182, 0.010555518, 0.017), (-0.020838477, 0.010161523, 0.001), (-0.020838477, 0.010161523, 0.017), (-0.020444483, 0.009838179, 0.001), (-0.020444483, 0.009838179, 0.017), (-0.019994976, 0.009597913, 0.001), (-0.019994976, 0.009597913, 0.017), (-0.019507235, 0.009449958, 0.001), (-0.019507235, 0.009449958, 0.017), (-0.019, 0.0094, 0.001), (-0.019, 0.0094, 0.017), (-0.018492766, 0.009449958, 0.001), (-0.018492766, 0.009449958, 0.017), (-0.018005023, 0.009597913, 0.001), (-0.018005023, 0.009597913, 0.017), (-0.017555518, 0.009838179, 0.001), (-0.017555518, 0.009838179, 0.017), (-0.017161522, 0.010161523, 0.001), (-0.017161522, 0.010161523, 0.017), (-0.01683818, 0.010555518, 0.001), (-0.01683818, 0.010555518, 0.017), (-0.016597914, 0.0110050235, 0.001), (-0.016597914, 0.0110050235, 0.017), (-0.016449958, 0.0114927655, 0.001), (-0.016449958, 0.0114927655, 0.017)]
            color3f[] primvars:displayColor = [(0.62, 0.66, 0.7)]
            uniform token subdivisionScheme = "none"
        }

        def Mesh "bearing_m1" (
            prepend apiSchemas = ["MaterialBindingAPI"]
            customData = {
                bool newton_collision = 0
            }
        )
        {
            int[] faceVertexCounts = [3, 3, 3, 3, 3, 3, 3, 3, 3, 3, 3, 3]
            int[] faceVertexIndices = [1, 3, 0, 4, 1, 0, 0, 3, 2, 2, 4, 0, 1, 7, 3, 5, 1, 4, 5, 7, 1, 3, 7, 2, 6, 4, 2, 2, 7, 6, 6, 5, 4, 7, 5, 6]
            rel material:binding = </Looks/M_080b0d>
            point3f[] points = [(-0.03, -0.024, 0.016), (-0.03, -0.024, 0.03), (-0.03, -0.012, 0.016), (-0.03, -0.012, 0.03), (-0.024, -0.024, 0.016), (-0.024, -0.024, 0.03), (-0.024, -0.012, 0.016), (-0.024, -0.012, 0.03)]
            color3f[] primvars:displayColor = [(0.035, 0.045, 0.052)]
            uniform token subdivisionScheme = "none"
        }

        def Mesh "pivot_head_m1" (
            prepend apiSchemas = ["MaterialBindingAPI"]
            customData = {
                bool newton_collision = 0
            }
        )
        {
            int[] faceVertexCounts = [3, 3, 3, 3, 3, 3, 3, 3, 3, 3, 3, 3, 3, 3, 3, 3, 3, 3, 3, 3, 3, 3, 3, 3, 3, 3, 3, 3, 3, 3, 3, 3, 3, 3, 3, 3, 3, 3, 3, 3, 3, 3, 3, 3, 3, 3, 3, 3, 3, 3, 3, 3, 3, 3, 3, 3, 3, 3, 3, 3, 3, 3, 3, 3, 3, 3, 3, 3, 3, 3, 3, 3, 3, 3, 3, 3, 3, 3, 3, 3, 3, 3, 3, 3, 3, 3, 3, 3, 3, 3, 3, 3, 3, 3, 3, 3, 3, 3, 3, 3, 3, 3, 3, 3, 3, 3, 3, 3, 3, 3, 3, 3, 3, 3, 3, 3, 3, 3, 3, 3, 3, 3, 3, 3, 3, 3, 3, 3]
            int[] faceVertexIndices = [1, 0, 4, 1, 4, 2, 2, 4, 5, 2, 5, 3, 4, 0, 6, 4, 6, 5, 5, 6, 7, 5, 7, 3, 6, 0, 8, 6, 8, 7, 7, 8, 9, 7, 9, 3, 8, 0, 10, 8, 10, 9, 9, 10, 11, 9, 11, 3, 10, 0, 12, 10, 12, 11, 11, 12, 13, 11, 13, 3, 12, 0, 14, 12, 14, 13, 13, 14, 15, 13, 15, 3, 14, 0, 16, 14, 16, 15, 15, 16, 17, 15, 17, 3, 16, 0, 18, 16, 18, 17, 17, 18, 19, 17, 19, 3, 18, 0, 20, 18, 20, 19, 19, 20, 21, 19, 21, 3, 20, 0, 22, 20, 22, 21, 21, 22, 23, 21, 23, 3, 22, 0, 24, 22, 24, 23, 23, 24, 25, 23, 25, 3, 24, 0, 26, 24, 26, 25, 25, 26, 27, 25, 27, 3, 26, 0, 28, 26, 28, 27, 27, 28, 29, 27, 29, 3, 28, 0, 30, 28, 30, 29, 29, 30, 31, 29, 31, 3, 30, 0, 32, 30, 32, 31, 31, 32, 33, 31, 33, 3, 32, 0, 34, 32, 34, 33, 33, 34, 35, 33, 35, 3, 34, 0, 36, 34, 36, 35, 35, 36, 37, 35, 37, 3, 36, 0, 38, 36, 38, 37, 37, 38, 39, 37, 39, 3, 38, 0, 40, 38, 40, 39, 39, 40, 41, 39, 41, 3, 40, 0, 42, 40, 42, 41, 41, 42, 43, 41, 43, 3, 42, 0, 44, 42, 44, 43, 43, 44, 45, 43, 45, 3, 44, 0, 46, 44, 46, 45, 45, 46, 47, 45, 47, 3, 46, 0, 48, 46, 48, 47, 47, 48, 49, 47, 49, 3, 48, 0, 50, 48, 50, 49, 49, 50, 51, 49, 51, 3, 50, 0, 52, 50, 52, 51, 51, 52, 53, 51, 53, 3, 52, 0, 54, 52, 54, 53, 53, 54, 55, 53, 55, 3, 54, 0, 56, 54, 56, 55, 55, 56, 57, 55, 57, 3, 56, 0, 58, 56, 58, 57, 57, 58, 59, 57, 59, 3, 58, 0, 60, 58, 60, 59, 59, 60, 61, 59, 61, 3, 60, 0, 62, 60, 62, 61, 61, 62, 63, 61, 63, 3, 62, 0, 64, 62, 64, 63, 63, 64, 65, 63, 65, 3, 64, 0, 1, 64, 1, 65, 65, 1, 2, 65, 2, 3]
            rel material:binding = </Looks/M_9ea8b2>
            point3f[] points = [(-0.032, -0.018, 0.024), (-0.032, -0.018, 0.0205), (-0.03, -0.018, 0.0205), (-0.03, -0.018, 0.024), (-0.032, -0.017317183, 0.020567251), (-0.03, -0.017317183, 0.020567251), (-0.032, -0.016660608, 0.020766422), (-0.03, -0.016660608, 0.020766422), (-0.032, -0.016055504, 0.021089856), (-0.03, -0.016055504, 0.021089856), (-0.032, -0.015525126, 0.021525126), (-0.03, -0.015525126, 0.021525126), (-0.032, -0.015089856, 0.022055505), (-0.03, -0.015089856, 0.022055505), (-0.032, -0.014766422, 0.022660607), (-0.03, -0.014766422, 0.022660607), (-0.032, -0.014567251, 0.023317184), (-0.03, -0.014567251, 0.023317184), (-0.032, -0.0145, 0.024), (-0.03, -0.0145, 0.024), (-0.032, -0.014567251, 0.024682816), (-0.03, -0.014567251, 0.024682816), (-0.032, -0.014766422, 0.025339391), (-0.03, -0.014766422, 0.025339391), (-0.032, -0.015089856, 0.025944496), (-0.03, -0.015089856, 0.025944496), (-0.032, -0.015525126, 0.026474874), (-0.03, -0.015525126, 0.026474874), (-0.032, -0.016055504, 0.026910143), (-0.03, -0.016055504, 0.026910143), (-0.032, -0.016660608, 0.027233578), (-0.03, -0.016660608, 0.027233578), (-0.032, -0.017317183, 0.027432749), (-0.03, -0.017317183, 0.027432749), (-0.032, -0.018, 0.0275), (-0.03, -0.018, 0.0275), (-0.032, -0.018682817, 0.027432749), (-0.03, -0.018682817, 0.027432749), (-0.032, -0.019339392, 0.027233578), (-0.03, -0.019339392, 0.027233578), (-0.032, -0.019944496, 0.026910143), (-0.03, -0.019944496, 0.026910143), (-0.032, -0.020474873, 0.026474874), (-0.03, -0.020474873, 0.026474874), (-0.032, -0.020910144, 0.025944496), (-0.03, -0.020910144, 0.025944496), (-0.032, -0.02123358, 0.025339391), (-0.03, -0.02123358, 0.025339391), (-0.032, -0.021432748, 0.024682816), (-0.03, -0.021432748, 0.024682816), (-0.032, -0.0215, 0.024), (-0.03, -0.0215, 0.024), (-0.032, -0.021432748, 0.023317184), (-0.03, -0.021432748, 0.023317184), (-0.032, -0.02123358, 0.022660607), (-0.03, -0.02123358, 0.022660607), (-0.032, -0.020910144, 0.022055505), (-0.03, -0.020910144, 0.022055505), (-0.032, -0.020474873, 0.021525126), (-0.03, -0.020474873, 0.021525126), (-0.032, -0.019944496, 0.021089856), (-0.03, -0.019944496, 0.021089856), (-0.032, -0.019339392, 0.020766422), (-0.03, -0.019339392, 0.020766422), (-0.032, -0.018682817, 0.020567251), (-0.03, -0.018682817, 0.020567251)]
            color3f[] primvars:displayColor = [(0.62, 0.66, 0.7)]
            uniform token subdivisionScheme = "none"
        }

        def Mesh "standoff_1" (
            prepend apiSchemas = ["MaterialBindingAPI"]
            customData = {
                bool newton_collision = 0
            }
        )
        {
            int[] faceVertexCounts = [3, 3, 3, 3, 3, 3, 3, 3, 3, 3, 3, 3, 3, 3, 3, 3, 3, 3, 3, 3, 3, 3, 3, 3, 3, 3, 3, 3, 3, 3, 3, 3, 3, 3, 3, 3, 3, 3, 3, 3, 3, 3, 3, 3, 3, 3, 3, 3, 3, 3, 3, 3, 3, 3, 3, 3, 3, 3, 3, 3, 3, 3, 3, 3, 3, 3, 3, 3, 3, 3, 3, 3, 3, 3, 3, 3, 3, 3, 3, 3, 3, 3, 3, 3, 3, 3, 3, 3, 3, 3, 3, 3, 3, 3, 3, 3, 3, 3, 3, 3, 3, 3, 3, 3, 3, 3, 3, 3, 3, 3, 3, 3, 3, 3, 3, 3, 3, 3, 3, 3, 3, 3, 3, 3, 3, 3, 3, 3]
            int[] faceVertexIndices = [1, 0, 4, 1, 4, 2, 2, 4, 5, 2, 5, 3, 4, 0, 6, 4, 6, 5, 5, 6, 7, 5, 7, 3, 6, 0, 8, 6, 8, 7, 7, 8, 9, 7, 9, 3, 8, 0, 10, 8, 10, 9, 9, 10, 11, 9, 11, 3, 10, 0, 12, 10, 12, 11, 11, 12, 13, 11, 13, 3, 12, 0, 14, 12, 14, 13, 13, 14, 15, 13, 15, 3, 14, 0, 16, 14, 16, 15, 15, 16, 17, 15, 17, 3, 16, 0, 18, 16, 18, 17, 17, 18, 19, 17, 19, 3, 18, 0, 20, 18, 20, 19, 19, 20, 21, 19, 21, 3, 20, 0, 22, 20, 22, 21, 21, 22, 23, 21, 23, 3, 22, 0, 24, 22, 24, 23, 23, 24, 25, 23, 25, 3, 24, 0, 26, 24, 26, 25, 25, 26, 27, 25, 27, 3, 26, 0, 28, 26, 28, 27, 27, 28, 29, 27, 29, 3, 28, 0, 30, 28, 30, 29, 29, 30, 31, 29, 31, 3, 30, 0, 32, 30, 32, 31, 31, 32, 33, 31, 33, 3, 32, 0, 34, 32, 34, 33, 33, 34, 35, 33, 35, 3, 34, 0, 36, 34, 36, 35, 35, 36, 37, 35, 37, 3, 36, 0, 38, 36, 38, 37, 37, 38, 39, 37, 39, 3, 38, 0, 40, 38, 40, 39, 39, 40, 41, 39, 41, 3, 40, 0, 42, 40, 42, 41, 41, 42, 43, 41, 43, 3, 42, 0, 44, 42, 44, 43, 43, 44, 45, 43, 45, 3, 44, 0, 46, 44, 46, 45, 45, 46, 47, 45, 47, 3, 46, 0, 48, 46, 48, 47, 47, 48, 49, 47, 49, 3, 48, 0, 50, 48, 50, 49, 49, 50, 51, 49, 51, 3, 50, 0, 52, 50, 52, 51, 51, 52, 53, 51, 53, 3, 52, 0, 54, 52, 54, 53, 53, 54, 55, 53, 55, 3, 54, 0, 56, 54, 56, 55, 55, 56, 57, 55, 57, 3, 56, 0, 58, 56, 58, 57, 57, 58, 59, 57, 59, 3, 58, 0, 60, 58, 60, 59, 59, 60, 61, 59, 61, 3, 60, 0, 62, 60, 62, 61, 61, 62, 63, 61, 63, 3, 62, 0, 64, 62, 64, 63, 63, 64, 65, 63, 65, 3, 64, 0, 1, 64, 1, 65, 65, 1, 2, 65, 2, 3]
            rel material:binding = </Looks/M_9ea8b2>
            point3f[] points = [(0.019, 0.012, 0.001), (0.0216, 0.012, 0.001), (0.0216, 0.012, 0.017), (0.019, 0.012, 0.017), (0.021550043, 0.012507235, 0.001), (0.021550043, 0.012507235, 0.017), (0.021402087, 0.012994977, 0.001), (0.021402087, 0.012994977, 0.017), (0.02116182, 0.013444482, 0.001), (0.02116182, 0.013444482, 0.017), (0.020838477, 0.013838477, 0.001), (0.020838477, 0.013838477, 0.017), (0.020444483, 0.014161821, 0.001), (0.020444483, 0.014161821, 0.017), (0.019994976, 0.014402087, 0.001), (0.019994976, 0.014402087, 0.017), (0.019507235, 0.014550041, 0.001), (0.019507235, 0.014550041, 0.017), (0.019, 0.0146, 0.001), (0.019, 0.0146, 0.017), (0.018492766, 0.014550041, 0.001), (0.018492766, 0.014550041, 0.017), (0.018005023, 0.014402087, 0.001), (0.018005023, 0.014402087, 0.017), (0.017555518, 0.014161821, 0.001), (0.017555518, 0.014161821, 0.017), (0.017161522, 0.013838477, 0.001), (0.017161522, 0.013838477, 0.017), (0.01683818, 0.013444482, 0.001), (0.01683818, 0.013444482, 0.017), (0.016597914, 0.012994977, 0.001), (0.016597914, 0.012994977, 0.017), (0.016449958, 0.012507235, 0.001), (0.016449958, 0.012507235, 0.017), (0.0164, 0.012, 0.001), (0.0164, 0.012, 0.017), (0.016449958, 0.0114927655, 0.001), (0.016449958, 0.0114927655, 0.017), (0.016597914, 0.0110050235, 0.001), (0.016597914, 0.0110050235, 0.017), (0.01683818, 0.010555518, 0.001), (0.01683818, 0.010555518, 0.017), (0.017161522, 0.010161523, 0.001), (0.017161522, 0.010161523, 0.017), (0.017555518, 0.009838179, 0.001), (0.017555518, 0.009838179, 0.017), (0.018005023, 0.009597913, 0.001), (0.018005023, 0.009597913, 0.017), (0.018492766, 0.009449958, 0.001), (0.018492766, 0.009449958, 0.017), (0.019, 0.0094, 0.001), (0.019, 0.0094, 0.017), (0.019507235, 0.009449958, 0.001), (0.019507235, 0.009449958, 0.017), (0.019994976, 0.009597913, 0.001), (0.019994976, 0.009597913, 0.017), (0.020444483, 0.009838179, 0.001), (0.020444483, 0.009838179, 0.017), (0.020838477, 0.010161523, 0.001), (0.020838477, 0.010161523, 0.017), (0.02116182, 0.010555518, 0.001), (0.02116182, 0.010555518, 0.017), (0.021402087, 0.0110050235, 0.001), (0.021402087, 0.0110050235, 0.017), (0.021550043, 0.0114927655, 0.001), (0.021550043, 0.0114927655, 0.017)]
            color3f[] primvars:displayColor = [(0.62, 0.66, 0.7)]
            uniform token subdivisionScheme = "none"
        }

        def Mesh "bearing_1" (
            prepend apiSchemas = ["MaterialBindingAPI"]
            customData = {
                bool newton_collision = 0
            }
        )
        {
            int[] faceVertexCounts = [3, 3, 3, 3, 3, 3, 3, 3, 3, 3, 3, 3]
            int[] faceVertexIndices = [1, 3, 0, 4, 1, 0, 0, 3, 2, 2, 4, 0, 1, 7, 3, 5, 1, 4, 5, 7, 1, 3, 7, 2, 6, 4, 2, 2, 7, 6, 6, 5, 4, 7, 5, 6]
            rel material:binding = </Looks/M_080b0d>
            point3f[] points = [(0.024, -0.024, 0.016), (0.024, -0.024, 0.03), (0.024, -0.012, 0.016), (0.024, -0.012, 0.03), (0.03, -0.024, 0.016), (0.03, -0.024, 0.03), (0.03, -0.012, 0.016), (0.03, -0.012, 0.03)]
            color3f[] primvars:displayColor = [(0.035, 0.045, 0.052)]
            uniform token subdivisionScheme = "none"
        }

        def Mesh "pivot_head_1" (
            prepend apiSchemas = ["MaterialBindingAPI"]
            customData = {
                bool newton_collision = 0
            }
        )
        {
            int[] faceVertexCounts = [3, 3, 3, 3, 3, 3, 3, 3, 3, 3, 3, 3, 3, 3, 3, 3, 3, 3, 3, 3, 3, 3, 3, 3, 3, 3, 3, 3, 3, 3, 3, 3, 3, 3, 3, 3, 3, 3, 3, 3, 3, 3, 3, 3, 3, 3, 3, 3, 3, 3, 3, 3, 3, 3, 3, 3, 3, 3, 3, 3, 3, 3, 3, 3, 3, 3, 3, 3, 3, 3, 3, 3, 3, 3, 3, 3, 3, 3, 3, 3, 3, 3, 3, 3, 3, 3, 3, 3, 3, 3, 3, 3, 3, 3, 3, 3, 3, 3, 3, 3, 3, 3, 3, 3, 3, 3, 3, 3, 3, 3, 3, 3, 3, 3, 3, 3, 3, 3, 3, 3, 3, 3, 3, 3, 3, 3, 3, 3]
            int[] faceVertexIndices = [1, 0, 4, 1, 4, 2, 2, 4, 5, 2, 5, 3, 4, 0, 6, 4, 6, 5, 5, 6, 7, 5, 7, 3, 6, 0, 8, 6, 8, 7, 7, 8, 9, 7, 9, 3, 8, 0, 10, 8, 10, 9, 9, 10, 11, 9, 11, 3, 10, 0, 12, 10, 12, 11, 11, 12, 13, 11, 13, 3, 12, 0, 14, 12, 14, 13, 13, 14, 15, 13, 15, 3, 14, 0, 16, 14, 16, 15, 15, 16, 17, 15, 17, 3, 16, 0, 18, 16, 18, 17, 17, 18, 19, 17, 19, 3, 18, 0, 20, 18, 20, 19, 19, 20, 21, 19, 21, 3, 20, 0, 22, 20, 22, 21, 21, 22, 23, 21, 23, 3, 22, 0, 24, 22, 24, 23, 23, 24, 25, 23, 25, 3, 24, 0, 26, 24, 26, 25, 25, 26, 27, 25, 27, 3, 26, 0, 28, 26, 28, 27, 27, 28, 29, 27, 29, 3, 28, 0, 30, 28, 30, 29, 29, 30, 31, 29, 31, 3, 30, 0, 32, 30, 32, 31, 31, 32, 33, 31, 33, 3, 32, 0, 34, 32, 34, 33, 33, 34, 35, 33, 35, 3, 34, 0, 36, 34, 36, 35, 35, 36, 37, 35, 37, 3, 36, 0, 38, 36, 38, 37, 37, 38, 39, 37, 39, 3, 38, 0, 40, 38, 40, 39, 39, 40, 41, 39, 41, 3, 40, 0, 42, 40, 42, 41, 41, 42, 43, 41, 43, 3, 42, 0, 44, 42, 44, 43, 43, 44, 45, 43, 45, 3, 44, 0, 46, 44, 46, 45, 45, 46, 47, 45, 47, 3, 46, 0, 48, 46, 48, 47, 47, 48, 49, 47, 49, 3, 48, 0, 50, 48, 50, 49, 49, 50, 51, 49, 51, 3, 50, 0, 52, 50, 52, 51, 51, 52, 53, 51, 53, 3, 52, 0, 54, 52, 54, 53, 53, 54, 55, 53, 55, 3, 54, 0, 56, 54, 56, 55, 55, 56, 57, 55, 57, 3, 56, 0, 58, 56, 58, 57, 57, 58, 59, 57, 59, 3, 58, 0, 60, 58, 60, 59, 59, 60, 61, 59, 61, 3, 60, 0, 62, 60, 62, 61, 61, 62, 63, 61, 63, 3, 62, 0, 64, 62, 64, 63, 63, 64, 65, 63, 65, 3, 64, 0, 1, 64, 1, 65, 65, 1, 2, 65, 2, 3]
            rel material:binding = </Looks/M_9ea8b2>
            point3f[] points = [(0.03, -0.018, 0.024), (0.03, -0.018, 0.0205), (0.032, -0.018, 0.0205), (0.032, -0.018, 0.024), (0.03, -0.017317183, 0.020567251), (0.032, -0.017317183, 0.020567251), (0.03, -0.016660608, 0.020766422), (0.032, -0.016660608, 0.020766422), (0.03, -0.016055504, 0.021089856), (0.032, -0.016055504, 0.021089856), (0.03, -0.015525126, 0.021525126), (0.032, -0.015525126, 0.021525126), (0.03, -0.015089856, 0.022055505), (0.032, -0.015089856, 0.022055505), (0.03, -0.014766422, 0.022660607), (0.032, -0.014766422, 0.022660607), (0.03, -0.014567251, 0.023317184), (0.032, -0.014567251, 0.023317184), (0.03, -0.0145, 0.024), (0.032, -0.0145, 0.024), (0.03, -0.014567251, 0.024682816), (0.032, -0.014567251, 0.024682816), (0.03, -0.014766422, 0.025339391), (0.032, -0.014766422, 0.025339391), (0.03, -0.015089856, 0.025944496), (0.032, -0.015089856, 0.025944496), (0.03, -0.015525126, 0.026474874), (0.032, -0.015525126, 0.026474874), (0.03, -0.016055504, 0.026910143), (0.032, -0.016055504, 0.026910143), (0.03, -0.016660608, 0.027233578), (0.032, -0.016660608, 0.027233578), (0.03, -0.017317183, 0.027432749), (0.032, -0.017317183, 0.027432749), (0.03, -0.018, 0.0275), (0.032, -0.018, 0.0275), (0.03, -0.018682817, 0.027432749), (0.032, -0.018682817, 0.027432749), (0.03, -0.019339392, 0.027233578), (0.032, -0.019339392, 0.027233578), (0.03, -0.019944496, 0.026910143), (0.032, -0.019944496, 0.026910143), (0.03, -0.020474873, 0.026474874), (0.032, -0.020474873, 0.026474874), (0.03, -0.020910144, 0.025944496), (0.032, -0.020910144, 0.025944496), (0.03, -0.02123358, 0.025339391), (0.032, -0.02123358, 0.025339391), (0.03, -0.021432748, 0.024682816), (0.032, -0.021432748, 0.024682816), (0.03, -0.0215, 0.024), (0.032, -0.0215, 0.024), (0.03, -0.021432748, 0.023317184), (0.032, -0.021432748, 0.023317184), (0.03, -0.02123358, 0.022660607), (0.032, -0.02123358, 0.022660607), (0.03, -0.020910144, 0.022055505), (0.032, -0.020910144, 0.022055505), (0.03, -0.020474873, 0.021525126), (0.032, -0.020474873, 0.021525126), (0.03, -0.019944496, 0.021089856), (0.032, -0.019944496, 0.021089856), (0.03, -0.019339392, 0.020766422), (0.032, -0.019339392, 0.020766422), (0.03, -0.018682817, 0.020567251), (0.032, -0.018682817, 0.020567251)]
            color3f[] primvars:displayColor = [(0.62, 0.66, 0.7)]
            uniform token subdivisionScheme = "none"
        }

        def Mesh "bearing_support" (
            prepend apiSchemas = ["MaterialBindingAPI"]
            customData = {
                bool newton_collision = 1
            }
        )
        {
            int[] faceVertexCounts = [3, 3, 3, 3, 3, 3, 3, 3, 3, 3, 3, 3]
            int[] faceVertexIndices = [1, 3, 0, 4, 1, 0, 0, 3, 2, 2, 4, 0, 1, 7, 3, 5, 1, 4, 5, 7, 1, 3, 7, 2, 6, 4, 2, 2, 7, 6, 6, 5, 4, 7, 5, 6]
            rel material:binding = </Looks/M_080b0d>
            point3f[] points = [(-0.029, -0.0255, 0.013), (-0.029, -0.0255, 0.0175), (-0.029, 0.0195, 0.013), (-0.029, 0.0195, 0.0175), (0.029, -0.0255, 0.013), (0.029, -0.0255, 0.0175), (0.029, 0.0195, 0.013), (0.029, 0.0195, 0.0175)]
            color3f[] primvars:displayColor = [(0.035, 0.045, 0.052)]
            uniform token subdivisionScheme = "none"
        }

        def Mesh "hinge_pin" (
            prepend apiSchemas = ["MaterialBindingAPI"]
            customData = {
                bool newton_collision = 0
            }
        )
        {
            int[] faceVertexCounts = [3, 3, 3, 3, 3, 3, 3, 3, 3, 3, 3, 3, 3, 3, 3, 3, 3, 3, 3, 3, 3, 3, 3, 3, 3, 3, 3, 3, 3, 3, 3, 3, 3, 3, 3, 3, 3, 3, 3, 3, 3, 3, 3, 3, 3, 3, 3, 3, 3, 3, 3, 3, 3, 3, 3, 3, 3, 3, 3, 3, 3, 3, 3, 3, 3, 3, 3, 3, 3, 3, 3, 3, 3, 3, 3, 3, 3, 3, 3, 3, 3, 3, 3, 3, 3, 3, 3, 3, 3, 3, 3, 3, 3, 3, 3, 3, 3, 3, 3, 3, 3, 3, 3, 3, 3, 3, 3, 3, 3, 3, 3, 3, 3, 3, 3, 3, 3, 3, 3, 3, 3, 3, 3, 3, 3, 3, 3, 3]
            int[] faceVertexIndices = [1, 0, 4, 1, 4, 2, 2, 4, 5, 2, 5, 3, 4, 0, 6, 4, 6, 5, 5, 6, 7, 5, 7, 3, 6, 0, 8, 6, 8, 7, 7, 8, 9, 7, 9, 3, 8, 0, 10, 8, 10, 9, 9, 10, 11, 9, 11, 3, 10, 0, 12, 10, 12, 11, 11, 12, 13, 11, 13, 3, 12, 0, 14, 12, 14, 13, 13, 14, 15, 13, 15, 3, 14, 0, 16, 14, 16, 15, 15, 16, 17, 15, 17, 3, 16, 0, 18, 16, 18, 17, 17, 18, 19, 17, 19, 3, 18, 0, 20, 18, 20, 19, 19, 20, 21, 19, 21, 3, 20, 0, 22, 20, 22, 21, 21, 22, 23, 21, 23, 3, 22, 0, 24, 22, 24, 23, 23, 24, 25, 23, 25, 3, 24, 0, 26, 24, 26, 25, 25, 26, 27, 25, 27, 3, 26, 0, 28, 26, 28, 27, 27, 28, 29, 27, 29, 3, 28, 0, 30, 28, 30, 29, 29, 30, 31, 29, 31, 3, 30, 0, 32, 30, 32, 31, 31, 32, 33, 31, 33, 3, 32, 0, 34, 32, 34, 33, 33, 34, 35, 33, 35, 3, 34, 0, 36, 34, 36, 35, 35, 36, 37, 35, 37, 3, 36, 0, 38, 36, 38, 37, 37, 38, 39, 37, 39, 3, 38, 0, 40, 38, 40, 39, 39, 40, 41, 39, 41, 3, 40, 0, 42, 40, 42, 41, 41, 42, 43, 41, 43, 3, 42, 0, 44, 42, 44, 43, 43, 44, 45, 43, 45, 3, 44, 0, 46, 44, 46, 45, 45, 46, 47, 45, 47, 3, 46, 0, 48, 46, 48, 47, 47, 48, 49, 47, 49, 3, 48, 0, 50, 48, 50, 49, 49, 50, 51, 49, 51, 3, 50, 0, 52, 50, 52, 51, 51, 52, 53, 51, 53, 3, 52, 0, 54, 52, 54, 53, 53, 54, 55, 53, 55, 3, 54, 0, 56, 54, 56, 55, 55, 56, 57, 55, 57, 3, 56, 0, 58, 56, 58, 57, 57, 58, 59, 57, 59, 3, 58, 0, 60, 58, 60, 59, 59, 60, 61, 59, 61, 3, 60, 0, 62, 60, 62, 61, 61, 62, 63, 61, 63, 3, 62, 0, 64, 62, 64, 63, 63, 64, 65, 63, 65, 3, 64, 0, 1, 64, 1, 65, 65, 1, 2, 65, 2, 3]
            rel material:binding = </Looks/M_9ea8b2>
            point3f[] points = [(-0.0315, -0.018, 0.024), (-0.0315, -0.018, 0.022), (0.0315, -0.018, 0.022), (0.0315, -0.018, 0.024), (-0.0315, -0.01760982, 0.02203843), (0.0315, -0.01760982, 0.02203843), (-0.0315, -0.017234633, 0.022152241), (0.0315, -0.017234633, 0.022152241), (-0.0315, -0.016888859, 0.02233706), (0.0315, -0.016888859, 0.02233706), (-0.0315, -0.016585786, 0.022585787), (0.0315, -0.016585786, 0.022585787), (-0.0315, -0.016337061, 0.02288886), (0.0315, -0.016337061, 0.02288886), (-0.0315, -0.01615224, 0.023234634), (0.0315, -0.01615224, 0.023234634), (-0.0315, -0.016038429, 0.023609819), (0.0315, -0.016038429, 0.023609819), (-0.0315, -0.016, 0.024), (0.0315, -0.016, 0.024), (-0.0315, -0.016038429, 0.024390182), (0.0315, -0.016038429, 0.024390182), (-0.0315, -0.01615224, 0.024765367), (0.0315, -0.01615224, 0.024765367), (-0.0315, -0.016337061, 0.02511114), (0.0315, -0.016337061, 0.02511114), (-0.0315, -0.016585786, 0.025414214), (0.0315, -0.016585786, 0.025414214), (-0.0315, -0.016888859, 0.02566294), (0.0315, -0.016888859, 0.02566294), (-0.0315, -0.017234633, 0.02584776), (0.0315, -0.017234633, 0.02584776), (-0.0315, -0.01760982, 0.02596157), (0.0315, -0.01760982, 0.02596157), (-0.0315, -0.018, 0.026), (0.0315, -0.018, 0.026), (-0.0315, -0.01839018, 0.02596157), (0.0315, -0.01839018, 0.02596157), (-0.0315, -0.018765368, 0.02584776), (0.0315, -0.018765368, 0.02584776), (-0.0315, -0.01911114, 0.02566294), (0.0315, -0.01911114, 0.02566294), (-0.0315, -0.019414214, 0.025414214), (0.0315, -0.019414214, 0.025414214), (-0.0315, -0.019662939, 0.02511114), (0.0315, -0.019662939, 0.02511114), (-0.0315, -0.01984776, 0.024765367), (0.0315, -0.01984776, 0.024765367), (-0.0315, -0.019961571, 0.024390182), (0.0315, -0.019961571, 0.024390182), (-0.0315, -0.02, 0.024), (0.0315, -0.02, 0.024), (-0.0315, -0.019961571, 0.023609819), (0.0315, -0.019961571, 0.023609819), (-0.0315, -0.01984776, 0.023234634), (0.0315, -0.01984776, 0.023234634), (-0.0315, -0.019662939, 0.02288886), (0.0315, -0.019662939, 0.02288886), (-0.0315, -0.019414214, 0.022585787), (0.0315, -0.019414214, 0.022585787), (-0.0315, -0.01911114, 0.02233706), (0.0315, -0.01911114, 0.02233706), (-0.0315, -0.018765368, 0.022152241), (0.0315, -0.018765368, 0.022152241), (-0.0315, -0.01839018, 0.02203843), (0.0315, -0.01839018, 0.02203843)]
            color3f[] primvars:displayColor = [(0.62, 0.66, 0.7)]
            uniform token subdivisionScheme = "none"
        }
    }

    def Xform "Receiver" (
        customData = {
            string hinge_axis = "X"
            string hinge_limits_deg = "0 to 45"
            string physics = "Newton native revolute and bistable detent, defined in simulate.py"
        }
    )
    {
        float xformOp:rotateX = 25
        double3 xformOp:translate = (0, -0.018, 0.024)
        uniform token[] xformOpOrder = ["xformOp:translate", "xformOp:rotateX"]

        def Mesh "cradle_floor" (
            prepend apiSchemas = ["MaterialBindingAPI"]
            customData = {
                bool newton_collision = 1
            }
        )
        {
            int[] faceVertexCounts = [3, 3, 3, 3, 3, 3, 3, 3, 3, 3, 3, 3]
            int[] faceVertexIndices = [1, 3, 0, 4, 1, 0, 0, 3, 2, 2, 4, 0, 1, 7, 3, 5, 1, 4, 5, 7, 1, 3, 7, 2, 6, 4, 2, 2, 7, 6, 6, 5, 4, 7, 5, 6]
            rel material:binding = </Looks/M_080b0d>
            point3f[] points = [(-0.025, -0.002, -0.0025), (-0.025, -0.002, 0.0025), (-0.025, 0.038, -0.0025), (-0.025, 0.038, 0.0025), (0.025, -0.002, -0.0025), (0.025, -0.002, 0.0025), (0.025, 0.038, -0.0025), (0.025, 0.038, 0.0025)]
            color3f[] primvars:displayColor = [(0.035, 0.045, 0.052)]
            uniform token subdivisionScheme = "none"
        }

        def Mesh "left_guide" (
            prepend apiSchemas = ["MaterialBindingAPI"]
            customData = {
                bool newton_collision = 1
            }
        )
        {
            int[] faceVertexCounts = [3, 3, 3, 3, 3, 3, 3, 3, 3, 3, 3, 3]
            int[] faceVertexIndices = [1, 3, 0, 4, 1, 0, 0, 3, 2, 2, 4, 0, 1, 7, 3, 5, 1, 4, 5, 7, 1, 3, 7, 2, 6, 4, 2, 2, 7, 6, 6, 5, 4, 7, 5, 6]
            rel material:binding = </Looks/M_080b0d>
            point3f[] points = [(-0.0255, 0.0005, 0), (-0.0255, 0.0005, 0.01), (-0.0255, 0.0355, 0), (-0.0255, 0.0355, 0.01), (-0.0225, 0.0005, 0), (-0.0225, 0.0005, 0.01), (-0.0225, 0.0355, 0), (-0.0225, 0.0355, 0.01)]
            color3f[] primvars:displayColor = [(0.035, 0.045, 0.052)]
            uniform token subdivisionScheme = "none"
        }

        def Mesh "right_guide" (
            prepend apiSchemas = ["MaterialBindingAPI"]
            customData = {
                bool newton_collision = 1
            }
        )
        {
            int[] faceVertexCounts = [3, 3, 3, 3, 3, 3, 3, 3, 3, 3, 3, 3]
            int[] faceVertexIndices = [1, 3, 0, 4, 1, 0, 0, 3, 2, 2, 4, 0, 1, 7, 3, 5, 1, 4, 5, 7, 1, 3, 7, 2, 6, 4, 2, 2, 7, 6, 6, 5, 4, 7, 5, 6]
            rel material:binding = </Looks/M_080b0d>
            point3f[] points = [(0.0225, 0.0005, 0), (0.0225, 0.0005, 0.01), (0.0225, 0.0355, 0), (0.0225, 0.0355, 0.01), (0.0255, 0.0005, 0), (0.0255, 0.0005, 0.01), (0.0255, 0.0355, 0), (0.0255, 0.0355, 0.01)]
            color3f[] primvars:displayColor = [(0.035, 0.045, 0.052)]
            uniform token subdivisionScheme = "none"
        }

        def Mesh "front_stop" (
            prepend apiSchemas = ["MaterialBindingAPI"]
            customData = {
                bool newton_collision = 1
            }
        )
        {
            int[] faceVertexCounts = [3, 3, 3, 3, 3, 3, 3, 3, 3, 3, 3, 3]
            int[] faceVertexIndices = [1, 3, 0, 4, 1, 0, 0, 3, 2, 2, 4, 0, 1, 7, 3, 5, 1, 4, 5, 7, 1, 3, 7, 2, 6, 4, 2, 2, 7, 6, 6, 5, 4, 7, 5, 6]
            rel material:binding = </Looks/M_080b0d>
            point3f[] points = [(-0.0215, 0.002, 0), (-0.0215, 0.002, 0.01), (-0.0215, 0.004, 0), (-0.0215, 0.004, 0.01), (0.0215, 0.002, 0), (0.0215, 0.002, 0.01), (0.0215, 0.004, 0), (0.0215, 0.004, 0.01)]
            color3f[] primvars:displayColor = [(0.035, 0.045, 0.052)]
            uniform token subdivisionScheme = "none"
        }

        def Mesh "rear_stop" (
            prepend apiSchemas = ["MaterialBindingAPI"]
            customData = {
                bool newton_collision = 1
            }
        )
        {
            int[] faceVertexCounts = [3, 3, 3, 3, 3, 3, 3, 3, 3, 3, 3, 3]
            int[] faceVertexIndices = [1, 3, 0, 4, 1, 0, 0, 3, 2, 2, 4, 0, 1, 7, 3, 5, 1, 4, 5, 7, 1, 3, 7, 2, 6, 4, 2, 2, 7, 6, 6, 5, 4, 7, 5, 6]
            rel material:binding = </Looks/M_080b0d>
            point3f[] points = [(-0.0215, 0.032, 0), (-0.0215, 0.032, 0.01), (-0.0215, 0.034, 0), (-0.0215, 0.034, 0.01), (0.0215, 0.032, 0), (0.0215, 0.032, 0.01), (0.0215, 0.034, 0), (0.0215, 0.034, 0.01)]
            color3f[] primvars:displayColor = [(0.035, 0.045, 0.052)]
            uniform token subdivisionScheme = "none"
        }

        def Mesh "guide_screw_m1" (
            prepend apiSchemas = ["MaterialBindingAPI"]
            customData = {
                bool newton_collision = 0
            }
        )
        {
            int[] faceVertexCounts = [3, 3, 3, 3, 3, 3, 3, 3, 3, 3, 3, 3, 3, 3, 3, 3, 3, 3, 3, 3, 3, 3, 3, 3, 3, 3, 3, 3, 3, 3, 3, 3, 3, 3, 3, 3, 3, 3, 3, 3, 3, 3, 3, 3, 3, 3, 3, 3, 3, 3, 3, 3, 3, 3, 3, 3, 3, 3, 3, 3, 3, 3, 3, 3, 3, 3, 3, 3, 3, 3, 3, 3, 3, 3, 3, 3, 3, 3, 3, 3, 3, 3, 3, 3, 3, 3, 3, 3, 3, 3, 3, 3, 3, 3, 3, 3, 3, 3, 3, 3, 3, 3, 3, 3, 3, 3, 3, 3, 3, 3, 3, 3, 3, 3, 3, 3, 3, 3, 3, 3, 3, 3, 3, 3, 3, 3, 3, 3]
            int[] faceVertexIndices = [1, 0, 4, 1, 4, 2, 2, 4, 5, 2, 5, 3, 4, 0, 6, 4, 6, 5, 5, 6, 7, 5, 7, 3, 6, 0, 8, 6, 8, 7, 7, 8, 9, 7, 9, 3, 8, 0, 10, 8, 10, 9, 9, 10, 11, 9, 11, 3, 10, 0, 12, 10, 12, 11, 11, 12, 13, 11, 13, 3, 12, 0, 14, 12, 14, 13, 13, 14, 15, 13, 15, 3, 14, 0, 16, 14, 16, 15, 15, 16, 17, 15, 17, 3, 16, 0, 18, 16, 18, 17, 17, 18, 19, 17, 19, 3, 18, 0, 20, 18, 20, 19, 19, 20, 21, 19, 21, 3, 20, 0, 22, 20, 22, 21, 21, 22, 23, 21, 23, 3, 22, 0, 24, 22, 24, 23, 23, 24, 25, 23, 25, 3, 24, 0, 26, 24, 26, 25, 25, 26, 27, 25, 27, 3, 26, 0, 28, 26, 28, 27, 27, 28, 29, 27, 29, 3, 28, 0, 30, 28, 30, 29, 29, 30, 31, 29, 31, 3, 30, 0, 32, 30, 32, 31, 31, 32, 33, 31, 33, 3, 32, 0, 34, 32, 34, 33, 33, 34, 35, 33, 35, 3, 34, 0, 36, 34, 36, 35, 35, 36, 37, 35, 37, 3, 36, 0, 38, 36, 38, 37, 37, 38, 39, 37, 39, 3, 38, 0, 40, 38, 40, 39, 39, 40, 41, 39, 41, 3, 40, 0, 42, 40, 42, 41, 41, 42, 43, 41, 43, 3, 42, 0, 44, 42, 44, 43, 43, 44, 45, 43, 45, 3, 44, 0, 46, 44, 46, 45, 45, 46, 47, 45, 47, 3, 46, 0, 48, 46, 48, 47, 47, 48, 49, 47, 49, 3, 48, 0, 50, 48, 50, 49, 49, 50, 51, 49, 51, 3, 50, 0, 52, 50, 52, 51, 51, 52, 53, 51, 53, 3, 52, 0, 54, 52, 54, 53, 53, 54, 55, 53, 55, 3, 54, 0, 56, 54, 56, 55, 55, 56, 57, 55, 57, 3, 56, 0, 58, 56, 58, 57, 57, 58, 59, 57, 59, 3, 58, 0, 60, 58, 60, 59, 59, 60, 61, 59, 61, 3, 60, 0, 62, 60, 62, 61, 61, 62, 63, 61, 63, 3, 62, 0, 64, 62, 64, 63, 63, 64, 65, 63, 65, 3, 64, 0, 1, 64, 1, 65, 65, 1, 2, 65, 2, 3]
            rel material:binding = </Looks/M_9ea8b2>
            point3f[] points = [(-0.024, 0.008, 0.0103), (-0.0215, 0.008, 0.0103), (-0.0215, 0.008, 0.0113), (-0.024, 0.008, 0.0113), (-0.021548036, 0.008487726, 0.0103), (-0.021548036, 0.008487726, 0.0113), (-0.021690302, 0.008956709, 0.0103), (-0.021690302, 0.008956709, 0.0113), (-0.021921325, 0.0093889255, 0.0103), (-0.021921325, 0.0093889255, 0.0113), (-0.022232233, 0.009767767, 0.0103), (-0.022232233, 0.009767767, 0.0113), (-0.022611074, 0.010078674, 0.0103), (-0.022611074, 0.010078674, 0.0113), (-0.023043292, 0.010309699, 0.0103), (-0.023043292, 0.010309699, 0.0113), (-0.023512274, 0.010451963, 0.0103), (-0.023512274, 0.010451963, 0.0113), (-0.024, 0.0105, 0.0103), (-0.024, 0.0105, 0.0113), (-0.024487726, 0.010451963, 0.0103), (-0.024487726, 0.010451963, 0.0113), (-0.024956709, 0.010309699, 0.0103), (-0.024956709, 0.010309699, 0.0113), (-0.025388926, 0.010078674, 0.0103), (-0.025388926, 0.010078674, 0.0113), (-0.025767768, 0.009767767, 0.0103), (-0.025767768, 0.009767767, 0.0113), (-0.026078675, 0.0093889255, 0.0103), (-0.026078675, 0.0093889255, 0.0113), (-0.026309699, 0.008956709, 0.0103), (-0.026309699, 0.008956709, 0.0113), (-0.026451964, 0.008487726, 0.0103), (-0.026451964, 0.008487726, 0.0113), (-0.0265, 0.008, 0.0103), (-0.0265, 0.008, 0.0113), (-0.026451964, 0.007512274, 0.0103), (-0.026451964, 0.007512274, 0.0113), (-0.026309699, 0.0070432913, 0.0103), (-0.026309699, 0.0070432913, 0.0113), (-0.026078675, 0.0066110743, 0.0103), (-0.026078675, 0.0066110743, 0.0113), (-0.025767768, 0.0062322333, 0.0103), (-0.025767768, 0.0062322333, 0.0113), (-0.025388926, 0.005921326, 0.0103), (-0.025388926, 0.005921326, 0.0113), (-0.024956709, 0.0056903013, 0.0103), (-0.024956709, 0.0056903013, 0.0113), (-0.024487726, 0.0055480367, 0.0103), (-0.024487726, 0.0055480367, 0.0113), (-0.024, 0.0055, 0.0103), (-0.024, 0.0055, 0.0113), (-0.023512274, 0.0055480367, 0.0103), (-0.023512274, 0.0055480367, 0.0113), (-0.023043292, 0.0056903013, 0.0103), (-0.023043292, 0.0056903013, 0.0113), (-0.022611074, 0.005921326, 0.0103), (-0.022611074, 0.005921326, 0.0113), (-0.022232233, 0.0062322333, 0.0103), (-0.022232233, 0.0062322333, 0.0113), (-0.021921325, 0.0066110743, 0.0103), (-0.021921325, 0.0066110743, 0.0113), (-0.021690302, 0.0070432913, 0.0103), (-0.021690302, 0.0070432913, 0.0113), (-0.021548036, 0.007512274, 0.0103), (-0.021548036, 0.007512274, 0.0113)]
            color3f[] primvars:displayColor = [(0.62, 0.66, 0.7)]
            uniform token subdivisionScheme = "none"
        }

        def Mesh "hinge_knuckle_m1" (
            prepend apiSchemas = ["MaterialBindingAPI"]
            customData = {
                bool newton_collision = 0
            }
        )
        {
            int[] faceVertexCounts = [3, 3, 3, 3, 3, 3, 3, 3, 3, 3, 3, 3]
            int[] faceVertexIndices = [1, 3, 0, 4, 1, 0, 0, 3, 2, 2, 4, 0, 1, 7, 3, 5, 1, 4, 5, 7, 1, 3, 7, 2, 6, 4, 2, 2, 7, 6, 6, 5, 4, 7, 5, 6]
            rel material:binding = </Looks/M_080b0d>
            point3f[] points = [(-0.02, -0.0045, -0.004), (-0.02, -0.0045, 0.004), (-0.02, 0.0045, -0.004), (-0.02, 0.0045, 0.004), (-0.012, -0.0045, -0.004), (-0.012, -0.0045, 0.004), (-0.012, 0.0045, -0.004), (-0.012, 0.0045, 0.004)]
            color3f[] primvars:displayColor = [(0.035, 0.045, 0.052)]
            uniform token subdivisionScheme = "none"
        }

        def Mesh "guide_screw_1" (
            prepend apiSchemas = ["MaterialBindingAPI"]
            customData = {
                bool newton_collision = 0
            }
        )
        {
            int[] faceVertexCounts = [3, 3, 3, 3, 3, 3, 3, 3, 3, 3, 3, 3, 3, 3, 3, 3, 3, 3, 3, 3, 3, 3, 3, 3, 3, 3, 3, 3, 3, 3, 3, 3, 3, 3, 3, 3, 3, 3, 3, 3, 3, 3, 3, 3, 3, 3, 3, 3, 3, 3, 3, 3, 3, 3, 3, 3, 3, 3, 3, 3, 3, 3, 3, 3, 3, 3, 3, 3, 3, 3, 3, 3, 3, 3, 3, 3, 3, 3, 3, 3, 3, 3, 3, 3, 3, 3, 3, 3, 3, 3, 3, 3, 3, 3, 3, 3, 3, 3, 3, 3, 3, 3, 3, 3, 3, 3, 3, 3, 3, 3, 3, 3, 3, 3, 3, 3, 3, 3, 3, 3, 3, 3, 3, 3, 3, 3, 3, 3]
            int[] faceVertexIndices = [1, 0, 4, 1, 4, 2, 2, 4, 5, 2, 5, 3, 4, 0, 6, 4, 6, 5, 5, 6, 7, 5, 7, 3, 6, 0, 8, 6, 8, 7, 7, 8, 9, 7, 9, 3, 8, 0, 10, 8, 10, 9, 9, 10, 11, 9, 11, 3, 10, 0, 12, 10, 12, 11, 11, 12, 13, 11, 13, 3, 12, 0, 14, 12, 14, 13, 13, 14, 15, 13, 15, 3, 14, 0, 16, 14, 16, 15, 15, 16, 17, 15, 17, 3, 16, 0, 18, 16, 18, 17, 17, 18, 19, 17, 19, 3, 18, 0, 20, 18, 20, 19, 19, 20, 21, 19, 21, 3, 20, 0, 22, 20, 22, 21, 21, 22, 23, 21, 23, 3, 22, 0, 24, 22, 24, 23, 23, 24, 25, 23, 25, 3, 24, 0, 26, 24, 26, 25, 25, 26, 27, 25, 27, 3, 26, 0, 28, 26, 28, 27, 27, 28, 29, 27, 29, 3, 28, 0, 30, 28, 30, 29, 29, 30, 31, 29, 31, 3, 30, 0, 32, 30, 32, 31, 31, 32, 33, 31, 33, 3, 32, 0, 34, 32, 34, 33, 33, 34, 35, 33, 35, 3, 34, 0, 36, 34, 36, 35, 35, 36, 37, 35, 37, 3, 36, 0, 38, 36, 38, 37, 37, 38, 39, 37, 39, 3, 38, 0, 40, 38, 40, 39, 39, 40, 41, 39, 41, 3, 40, 0, 42, 40, 42, 41, 41, 42, 43, 41, 43, 3, 42, 0, 44, 42, 44, 43, 43, 44, 45, 43, 45, 3, 44, 0, 46, 44, 46, 45, 45, 46, 47, 45, 47, 3, 46, 0, 48, 46, 48, 47, 47, 48, 49, 47, 49, 3, 48, 0, 50, 48, 50, 49, 49, 50, 51, 49, 51, 3, 50, 0, 52, 50, 52, 51, 51, 52, 53, 51, 53, 3, 52, 0, 54, 52, 54, 53, 53, 54, 55, 53, 55, 3, 54, 0, 56, 54, 56, 55, 55, 56, 57, 55, 57, 3, 56, 0, 58, 56, 58, 57, 57, 58, 59, 57, 59, 3, 58, 0, 60, 58, 60, 59, 59, 60, 61, 59, 61, 3, 60, 0, 62, 60, 62, 61, 61, 62, 63, 61, 63, 3, 62, 0, 64, 62, 64, 63, 63, 64, 65, 63, 65, 3, 64, 0, 1, 64, 1, 65, 65, 1, 2, 65, 2, 3]
            rel material:binding = </Looks/M_9ea8b2>
            point3f[] points = [(0.024, 0.008, 0.0103), (0.0265, 0.008, 0.0103), (0.0265, 0.008, 0.0113), (0.024, 0.008, 0.0113), (0.026451964, 0.008487726, 0.0103), (0.026451964, 0.008487726, 0.0113), (0.026309699, 0.008956709, 0.0103), (0.026309699, 0.008956709, 0.0113), (0.026078675, 0.0093889255, 0.0103), (0.026078675, 0.0093889255, 0.0113), (0.025767768, 0.009767767, 0.0103), (0.025767768, 0.009767767, 0.0113), (0.025388926, 0.010078674, 0.0103), (0.025388926, 0.010078674, 0.0113), (0.024956709, 0.010309699, 0.0103), (0.024956709, 0.010309699, 0.0113), (0.024487726, 0.010451963, 0.0103), (0.024487726, 0.010451963, 0.0113), (0.024, 0.0105, 0.0103), (0.024, 0.0105, 0.0113), (0.023512274, 0.010451963, 0.0103), (0.023512274, 0.010451963, 0.0113), (0.023043292, 0.010309699, 0.0103), (0.023043292, 0.010309699, 0.0113), (0.022611074, 0.010078674, 0.0103), (0.022611074, 0.010078674, 0.0113), (0.022232233, 0.009767767, 0.0103), (0.022232233, 0.009767767, 0.0113), (0.021921325, 0.0093889255, 0.0103), (0.021921325, 0.0093889255, 0.0113), (0.021690302, 0.008956709, 0.0103), (0.021690302, 0.008956709, 0.0113), (0.021548036, 0.008487726, 0.0103), (0.021548036, 0.008487726, 0.0113), (0.0215, 0.008, 0.0103), (0.0215, 0.008, 0.0113), (0.021548036, 0.007512274, 0.0103), (0.021548036, 0.007512274, 0.0113), (0.021690302, 0.0070432913, 0.0103), (0.021690302, 0.0070432913, 0.0113), (0.021921325, 0.0066110743, 0.0103), (0.021921325, 0.0066110743, 0.0113), (0.022232233, 0.0062322333, 0.0103), (0.022232233, 0.0062322333, 0.0113), (0.022611074, 0.005921326, 0.0103), (0.022611074, 0.005921326, 0.0113), (0.023043292, 0.0056903013, 0.0103), (0.023043292, 0.0056903013, 0.0113), (0.023512274, 0.0055480367, 0.0103), (0.023512274, 0.0055480367, 0.0113), (0.024, 0.0055, 0.0103), (0.024, 0.0055, 0.0113), (0.024487726, 0.0055480367, 0.0103), (0.024487726, 0.0055480367, 0.0113), (0.024956709, 0.0056903013, 0.0103), (0.024956709, 0.0056903013, 0.0113), (0.025388926, 0.005921326, 0.0103), (0.025388926, 0.005921326, 0.0113), (0.025767768, 0.0062322333, 0.0103), (0.025767768, 0.0062322333, 0.0113), (0.026078675, 0.0066110743, 0.0103), (0.026078675, 0.0066110743, 0.0113), (0.026309699, 0.0070432913, 0.0103), (0.026309699, 0.0070432913, 0.0113), (0.026451964, 0.007512274, 0.0103), (0.026451964, 0.007512274, 0.0113)]
            color3f[] primvars:displayColor = [(0.62, 0.66, 0.7)]
            uniform token subdivisionScheme = "none"
        }

        def Mesh "hinge_knuckle_1" (
            prepend apiSchemas = ["MaterialBindingAPI"]
            customData = {
                bool newton_collision = 0
            }
        )
        {
            int[] faceVertexCounts = [3, 3, 3, 3, 3, 3, 3, 3, 3, 3, 3, 3]
            int[] faceVertexIndices = [1, 3, 0, 4, 1, 0, 0, 3, 2, 2, 4, 0, 1, 7, 3, 5, 1, 4, 5, 7, 1, 3, 7, 2, 6, 4, 2, 2, 7, 6, 6, 5, 4, 7, 5, 6]
            rel material:binding = </Looks/M_080b0d>
            point3f[] points = [(0.012, -0.0045, -0.004), (0.012, -0.0045, 0.004), (0.012, 0.0045, -0.004), (0.012, 0.0045, 0.004), (0.02, -0.0045, -0.004), (0.02, -0.0045, 0.004), (0.02, 0.0045, -0.004), (0.02, 0.0045, 0.004)]
            color3f[] primvars:displayColor = [(0.035, 0.045, 0.052)]
            uniform token subdivisionScheme = "none"
        }

        def Mesh "front_latch_face" (
            prepend apiSchemas = ["MaterialBindingAPI"]
            customData = {
                bool newton_collision = 0
            }
        )
        {
            int[] faceVertexCounts = [3, 3, 3, 3, 3, 3, 3, 3, 3, 3, 3, 3]
            int[] faceVertexIndices = [1, 3, 0, 4, 1, 0, 0, 3, 2, 2, 4, 0, 1, 7, 3, 5, 1, 4, 5, 7, 1, 3, 7, 2, 6, 4, 2, 2, 7, 6, 6, 5, 4, 7, 5, 6]
            rel material:binding = </Looks/M_080b0d>
            point3f[] points = [(-0.0045, -0.004, 0.0005), (-0.0045, -0.004, 0.0055), (-0.0045, -0.002, 0.0005), (-0.0045, -0.002, 0.0055), (0.0045, -0.004, 0.0005), (0.0045, -0.004, 0.0055), (0.0045, -0.002, 0.0005), (0.0045, -0.002, 0.0055)]
            color3f[] primvars:displayColor = [(0.035, 0.045, 0.052)]
            uniform token subdivisionScheme = "none"
        }

        def Mesh "latch_indicator" (
            prepend apiSchemas = ["MaterialBindingAPI"]
            customData = {
                bool newton_collision = 0
            }
        )
        {
            int[] faceVertexCounts = [3, 3, 3, 3, 3, 3, 3, 3, 3, 3, 3, 3]
            int[] faceVertexIndices = [1, 3, 0, 4, 1, 0, 0, 3, 2, 2, 4, 0, 1, 7, 3, 5, 1, 4, 5, 7, 1, 3, 7, 2, 6, 4, 2, 2, 7, 6, 6, 5, 4, 7, 5, 6]
            rel material:binding = </Looks/M_9ea8b2>
            point3f[] points = [(-0.0015, -0.0044, 0.0021), (-0.0015, -0.0044, 0.0039), (-0.0015, -0.004, 0.0021), (-0.0015, -0.004, 0.0039), (0.0015, -0.0044, 0.0021), (0.0015, -0.0044, 0.0039), (0.0015, -0.004, 0.0021), (0.0015, -0.004, 0.0039)]
            color3f[] primvars:displayColor = [(0.62, 0.66, 0.7)]
            uniform token subdivisionScheme = "none"
        }
    }
}

def "Looks"
{
    def Material "M_9ea8b2"
    {
        token outputs:surface.connect = </Looks/M_9ea8b2/Surface.outputs:surface>

        def Shader "Surface"
        {
            uniform token info:id = "UsdPreviewSurface"
            color3f inputs:diffuseColor = (0.62, 0.66, 0.7)
            float inputs:roughness = 0.38
            token outputs:surface
        }
    }

    def Material "M_080b0d"
    {
        token outputs:surface.connect = </Looks/M_080b0d/Surface.outputs:surface>

        def Shader "Surface"
        {
            uniform token info:id = "UsdPreviewSurface"
            color3f inputs:diffuseColor = (0.035, 0.045, 0.052)
            float inputs:roughness = 0.38
            token outputs:surface
        }
    }
}

